<svg width="23" height="36" viewBox="0 0 23 36" fill="none" xmlns="http://www.w3.org/2000/svg">
<g clip-path="url(#clip0_126_10078)">
<path d="M13.3856 10.7466H21.0808C22.3489 10.7466 23.1371 12.109 22.4995 13.1866L10.4369 33.7916C10.1353 34.3068 9.58699 34.6049 9.01129 34.6049C7.96271 34.6049 7.16765 33.6358 7.41437 32.6056L10.574 19.4223L13.3856 10.7466Z" fill="#A7A7A7"/>
<path d="M16.0287 2.77539L13.3043 11.5561L10.4731 20.2151H2.28108C1.28039 20.2151 0.507429 19.3493 0.638556 18.3751L2.84701 2.13951C2.95743 1.33448 3.66136 0.732422 4.48954 0.732422H14.4275C15.5111 0.732422 16.3047 1.74714 16.0287 2.77539Z" fill="#A7A7A7"/>
</g>
<defs>
<clipPath id="clip0_126_10078">
<rect width="22.8192" height="34.8293" fill="white" transform="translate(0.18042 0.260742)"/>
</clipPath>
</defs>
</svg>
