<svg width="37" height="15" viewBox="0 0 37 15" fill="none" xmlns="http://www.w3.org/2000/svg">
<path fill-rule="evenodd" clip-rule="evenodd" d="M6.55586 0.735352V5.63506H5.15227V0.735352H0.226807V4.70791V4.72079V9.40158V14.7971H5.14583V7.7662H6.54942V14.7971H11.4684V0.735352H6.55586ZM12.8785 14.7906H24.1201V9.1698H19.2011V12.6852H17.7975V7.7662H24.1201V0.735352H12.8785V14.7906ZM17.7975 5.65437V2.84074H19.2011V5.65437H17.7975ZM31.8528 5.65437V0.735352H36.7718V4.25078L34.6664 6.71029L36.7718 9.1698V14.7906H31.8528V7.74689H30.4492V14.7906H25.5301V9.1698L27.6355 6.71029L25.5301 4.25078V0.735352H30.4492V5.65437H31.8528Z" fill="#F5C0C0"/>
</svg>
