<svg width="28" height="33" viewBox="0 0 28 33" fill="none" xmlns="http://www.w3.org/2000/svg">
<g clip-path="url(#clip0_126_10122)">
<path d="M13.4713 0.96802C12.4595 0.968464 11.5303 1.52664 11.0548 2.41971C10.5792 3.31278 10.6348 4.39527 11.1992 5.23501L12.369 4.06679C12.3304 3.95025 12.3109 3.82821 12.3113 3.70543C12.3113 3.06753 12.8284 2.55041 13.4663 2.55041C14.1042 2.55041 14.6213 3.06753 14.6213 3.70543C14.6213 4.34333 14.1042 4.86045 13.4663 4.86045C13.3441 4.86072 13.2226 4.84122 13.1066 4.8027L11.9384 5.97093C12.9112 6.63074 14.1967 6.59578 15.1323 5.88408C16.0678 5.17238 16.4446 3.94284 16.0683 2.82919C15.692 1.71555 14.6468 0.966458 13.4713 0.96802Z" fill="#34A853"/>
<path d="M12.3821 8.94599C12.3839 8.02129 12.0845 7.12117 11.5291 6.38184L10.011 7.89822C10.4858 8.76653 10.3149 9.84583 9.59521 10.5251L10.4202 12.5414C11.6426 11.7541 12.3816 10.4 12.3821 8.94599Z" fill="#FBBC04"/>
<path d="M8.13987 11.1214H8.10027C7.16915 11.1215 6.34096 10.5297 6.03941 9.64872C5.73787 8.76778 6.02966 7.79259 6.76551 7.22206C7.50136 6.65153 8.51849 6.61187 9.29654 7.12336L10.7997 5.62017C9.33806 4.43518 7.27391 4.34378 5.71322 5.39492C4.15253 6.44607 3.46138 8.39321 4.01007 10.1931C4.55877 11.993 6.2186 13.2234 8.10027 13.2252C8.3906 13.2253 8.68024 13.1966 8.96488 13.1394L8.13987 11.1214Z" fill="#EA4335"/>
<path d="M13.529 12.8664C12.5789 12.8654 11.6338 13.0039 10.7239 13.2773L11.9268 16.216C12.4504 16.0862 12.9879 16.0208 13.5273 16.0213C16.6531 16.0222 19.343 18.2309 19.9521 21.2967C20.5612 24.3626 18.9199 27.4318 16.0319 28.6275C13.1439 29.8232 9.81337 28.8124 8.07703 26.2133C6.34069 23.6141 6.68205 20.1504 8.89236 17.9403C9.35357 17.4805 9.88011 17.0913 10.4549 16.7852L9.26527 13.8548C4.83071 16.0266 2.73108 21.1797 4.38509 25.8323C6.0391 30.4848 10.9204 33.1563 15.7307 32.0415C20.5411 30.9267 23.7497 26.3804 23.1885 21.4746C22.6274 16.5688 18.475 12.8645 13.5372 12.8647L13.529 12.8664Z" fill="#4285F4"/>
</g>
<defs>
<clipPath id="clip0_126_10122">
<rect width="26.8683" height="31.3463" fill="white" transform="translate(0.463379 0.966309)"/>
</clipPath>
</defs>
</svg>
