<svg width="31" height="30" viewBox="0 0 31 30" fill="none" xmlns="http://www.w3.org/2000/svg">
<path d="M30.3248 23.7206C30.3248 23.4424 30.3248 23.3033 30.2969 23.1881C30.2073 22.8235 29.9167 22.538 29.5445 22.4508C29.4271 22.4235 29.2851 22.4235 29.0013 22.4235H28.0819C27.798 22.4235 27.6562 22.4235 27.5387 22.3962C27.1665 22.3084 26.8752 22.0236 26.7862 21.6589C26.7584 21.5438 26.7584 21.4047 26.7584 21.1265V14.407C26.7584 14.1289 26.7584 13.9891 26.787 13.8746C26.8766 13.5093 27.1672 13.2245 27.54 13.1373C27.6575 13.11 27.7994 13.11 28.0833 13.11H29.002C29.2859 13.11 29.4284 13.11 29.5452 13.0827C29.918 12.9956 30.2087 12.7101 30.2983 12.3454C30.3268 12.2303 30.3268 12.0912 30.3268 11.813V2.17075C30.3268 1.89257 30.3268 1.75282 30.299 1.63836C30.2093 1.27367 29.9187 0.988176 29.5466 0.900997C29.4291 0.873712 29.2872 0.873712 29.0034 0.873712H23.2234C23.0434 0.873712 22.9531 0.873712 22.8703 0.887022C22.6102 0.929613 22.3766 1.0687 22.2197 1.27633C22.1694 1.34222 22.1287 1.42074 22.0459 1.5778L16.509 12.1298L11.0386 1.58312C10.9564 1.42474 10.9157 1.34554 10.8654 1.27899C10.7079 1.07003 10.4743 0.929613 10.2129 0.886357C10.1294 0.873047 10.039 0.873047 9.85779 0.873047H2.04605C1.76221 0.873047 1.61962 0.873047 1.50283 0.900332C1.13003 0.988176 0.839398 1.27301 0.749764 1.63836C0.721924 1.75349 0.721924 1.89257 0.721924 2.17075V6.54633C0.721924 6.8245 0.721924 6.96425 0.749764 7.07872C0.839398 7.44341 1.13003 7.7289 1.50214 7.81608C1.61962 7.84336 1.76154 7.84336 2.04538 7.84336H2.9322C3.21604 7.84336 3.35864 7.84336 3.47544 7.87065C3.84755 7.9585 4.13886 8.24332 4.22782 8.608C4.25566 8.72314 4.25566 8.86222 4.25566 9.1404V15.5004C4.25566 15.7787 4.25566 15.9177 4.22782 16.0328C4.13819 16.3976 3.84755 16.6831 3.47544 16.7702C3.35797 16.7975 3.21604 16.7975 2.9322 16.7975H2.04538C1.76154 16.7975 1.61894 16.7975 1.50214 16.8248C1.13003 16.9126 0.838719 17.1975 0.749764 17.5621C0.721924 17.6773 0.721924 17.8164 0.721924 18.0946V28.5394C0.721924 28.8176 0.721924 28.9573 0.749764 29.0717C0.839398 29.4365 1.13003 29.7219 1.50214 29.8091C1.61962 29.8364 1.76154 29.8364 2.04538 29.8364H10.0323C10.3161 29.8364 10.4587 29.8364 10.5755 29.8091C10.9476 29.7213 11.2389 29.4365 11.3279 29.0717C11.3557 28.9566 11.3557 28.8176 11.3557 28.5394V23.7179C11.3557 23.4397 11.3557 23.3006 11.3279 23.1855C11.2382 22.8208 10.9476 22.5353 10.5755 22.4482C10.4581 22.4209 10.3161 22.4209 10.0323 22.4209H9.15495C8.87114 22.4209 8.72919 22.4209 8.61171 22.3936C8.2396 22.3057 7.94829 22.0209 7.85933 21.6563C7.83149 21.5411 7.83149 21.402 7.83149 21.1238V11.2633L13.5966 22.4468C13.7487 22.7416 13.8247 22.8893 13.9049 22.9666C14.165 23.2168 14.5805 23.2208 14.8453 22.9753C14.9275 22.9 15.0062 22.7536 15.1638 22.4615L21.561 10.6271V21.1252C21.561 21.4033 21.561 21.5424 21.5332 21.6576C21.4436 22.0222 21.1529 22.3077 20.7808 22.3949C20.6634 22.4222 20.5214 22.4222 20.2376 22.4222H18.5285C18.2446 22.4222 18.102 22.4222 17.9852 22.4495C17.6131 22.5373 17.3218 22.8222 17.2328 23.1868C17.205 23.3019 17.205 23.4411 17.205 23.7192V28.5859C17.205 28.8641 17.205 29.0032 17.2328 29.1183C17.3225 29.483 17.6131 29.7685 17.9852 29.8557C18.1027 29.883 18.2446 29.883 18.5285 29.883H29.0006C29.2845 29.883 29.4264 29.883 29.5439 29.8557C29.916 29.7678 30.2073 29.483 30.2962 29.1183C30.324 29.0032 30.3241 28.8641 30.3241 28.5859V23.7192L30.3248 23.7206Z" fill="#C8F169"/>
</svg>
