<svg width="33" height="33" viewBox="0 0 33 33" fill="none" xmlns="http://www.w3.org/2000/svg">
<g clip-path="url(#clip0_126_10115)">
<path d="M16.4998 32.3239C25.1559 32.3239 32.173 25.3068 32.173 16.6507C32.173 7.99466 25.1559 0.977539 16.4998 0.977539C7.84378 0.977539 0.82666 7.99466 0.82666 16.6507C0.82666 25.3068 7.84378 32.3239 16.4998 32.3239Z" fill="#40A4C4"/>
<path d="M16.6148 26.4733C18.1716 26.4733 24.3155 19.5667 24.3155 14.9378C24.3155 10.5076 20.8152 6.82959 16.6148 6.82959C12.1949 6.82959 8.69458 10.5076 8.69458 14.9378C8.69458 19.5667 14.8385 26.4733 16.6148 26.4733Z" fill="white"/>
<path d="M15.4757 10.0368C15.8414 9.95317 16.228 9.91138 16.6355 9.91138C19.1118 9.91138 21.233 11.9802 21.233 14.6551C21.233 17.0688 19.1118 19.1376 16.6355 19.1376C13.8875 19.1376 11.7664 17.0688 11.7664 14.6551C11.7664 13.6311 12.0798 12.7012 12.6127 11.9384C12.7799 12.7952 13.5427 13.4431 14.4726 13.4431C15.5175 13.4431 16.3638 12.6176 16.3638 11.5936C16.3638 10.9354 16.0086 10.3607 15.4757 10.0368Z" fill="#E94F3C"/>
</g>
<defs>
<clipPath id="clip0_126_10115">
<rect width="31.3463" height="31.3463" fill="white" transform="translate(0.82666 0.978027)"/>
</clipPath>
</defs>
</svg>
