<?xml version="1.0" encoding="UTF-8"?>
<svg version="1.1" xmlns="http://www.w3.org/2000/svg" width="25" height="33">
<path d="M0 0 C1.81242052 -0.02687279 3.62495233 -0.04633715 5.4375 -0.0625 C6.44683594 -0.07410156 7.45617187 -0.08570312 8.49609375 -0.09765625 C11 0 11 0 12 1 C12.10005826 3.12180138 12.13081087 5.24693539 12.1328125 7.37109375 C12.13474609 9.31532227 12.13474609 9.31532227 12.13671875 11.29882812 C12.13357666 12.31698608 12.13357666 12.31698608 12.13037109 13.35571289 C12.1250313 15.42536789 12.13031193 17.494805 12.13671875 19.56445312 C12.13542969 20.86189453 12.13414063 22.15933594 12.1328125 23.49609375 C12.13168457 24.69419678 12.13055664 25.8922998 12.12939453 27.12670898 C12 30 12 30 11 32 C7.18751574 32.02887236 3.3750593 32.04675492 -0.4375 32.0625 C-1.52611328 32.07087891 -2.61472656 32.07925781 -3.73632812 32.08789062 C-4.77080078 32.09111328 -5.80527344 32.09433594 -6.87109375 32.09765625 C-7.82943115 32.10289307 -8.78776855 32.10812988 -9.77514648 32.11352539 C-12 32 -12 32 -13 31 C-13.09975032 28.48863896 -13.13882183 26.01096585 -13.125 23.5 C-13.12886719 22.79746094 -13.13273438 22.09492188 -13.13671875 21.37109375 C-13.12661378 16.12661378 -13.12661378 16.12661378 -12 15 C-10.33382885 14.95936168 -8.66611905 14.957279 -7 15 C-7.020625 13.865625 -7.04125 12.73125 -7.0625 11.5625 C-7 8 -7 8 -6 7 C-4.00041636 6.95919217 -1.99954746 6.95745644 0 7 C0 4.69 0 2.38 0 0 Z " fill="#C7C7C7" transform="translate(13,1)"/>
<path d="M0 0 C1.81242052 -0.02687279 3.62495233 -0.04633715 5.4375 -0.0625 C6.44683594 -0.07410156 7.45617187 -0.08570312 8.49609375 -0.09765625 C11 0 11 0 12 1 C12.10005826 3.12180138 12.13081087 5.24693539 12.1328125 7.37109375 C12.13474609 9.31532227 12.13474609 9.31532227 12.13671875 11.29882812 C12.13357666 12.31698608 12.13357666 12.31698608 12.13037109 13.35571289 C12.1250313 15.42536789 12.13031193 17.494805 12.13671875 19.56445312 C12.13542969 20.86189453 12.13414063 22.15933594 12.1328125 23.49609375 C12.13168457 24.69419678 12.13055664 25.8922998 12.12939453 27.12670898 C12 30 12 30 11 32 C8.69 32 6.38 32 4 32 C4 24.08 4 16.16 4 8 C2.68 7.67 1.36 7.34 0 7 C0 4.69 0 2.38 0 0 Z " fill="#989898" transform="translate(13,1)"/>
<path d="M0 0 C1.69141656 0.08963062 3.37959602 0.24577676 5.0625 0.4375 C7.5065625 0.7159375 7.5065625 0.7159375 10 1 C10 6.28 10 11.56 10 17 C2.28515625 17.09765625 2.28515625 17.09765625 0 17 C-1.75559942 15.24440058 -1.13221919 12.96417558 -1.13671875 10.62890625 C-1.13285156 9.92636719 -1.12898437 9.22382813 -1.125 8.5 C-1.12886719 7.79746094 -1.13273438 7.09492188 -1.13671875 6.37109375 C-1.12661378 1.12661378 -1.12661378 1.12661378 0 0 Z " fill="#D9D9D9" transform="translate(1,16)"/>
</svg>
