<svg width="33" height="32" viewBox="0 0 33 32" fill="none" xmlns="http://www.w3.org/2000/svg">
<g clip-path="url(#clip0_126_10066)">
<path d="M15.6299 21.8771H17.3453V17.1985H21.66V15.535H17.3453V10.8564H15.6299V15.535H11.3672V17.1985H15.6299V21.8771Z" fill="#A7A7A7"/>
<path d="M7.6764 28.6344H9.13195V24.4756H12.9788V23.176H9.13195V18.9653H7.6764V23.176H3.82959V24.4756H7.6764V28.6344Z" fill="#A7A7A7"/>
<path d="M23.8436 13.6114H25.2992V9.4527H29.198V8.20509H25.2992V3.99438H23.8436V8.20509H19.9968V9.4527H23.8436V13.6114Z" fill="#A7A7A7"/>
<path d="M15.89 31.9099H17.1376V28.9468H19.7888V27.8552H17.1376V24.8921H15.89V27.8552H13.2908V28.9468H15.89V31.9099Z" fill="#A7A7A7"/>
<path d="M7.72839 13.6114H9.07997V9.40072H12.9788V8.20509H9.07997V3.99438H7.72839V8.20509H3.82959V9.40072H7.72839V13.6114Z" fill="#A7A7A7"/>
<path d="M28.2623 19.8499H29.5099V16.9388H32.1611V15.7951H29.5099V12.884H28.2623V15.7951H25.6631V16.9388H28.2623V19.8499Z" fill="#A7A7A7"/>
<path fill-rule="evenodd" clip-rule="evenodd" d="M23.8436 28.6344H25.2992V24.4756H29.198V23.176H25.2992V18.9653H23.8436V23.176H19.9968V24.4756H23.8436V28.6344Z" fill="#A7A7A7"/>
<path d="M19.5809 4.72136V3.83763H16.9817V0.978516H16.046V3.83763H13.4468V4.72136H16.046V7.58048H16.9817V4.72136H19.5809ZM3.4139 19.6408H4.34961V16.7816H6.94881V15.8979H4.34961V13.0908H3.4139V15.8979H0.814697V16.8336L3.4139 16.7816V19.6408Z" fill="#A7A7A7"/>
</g>
<defs>
<clipPath id="clip0_126_10066">
<rect width="31.3463" height="30.9326" fill="white" transform="translate(0.814697 0.978027)"/>
</clipPath>
</defs>
</svg>
