<svg width="150" height="25" viewBox="0 0 150 25" fill="none" xmlns="http://www.w3.org/2000/svg">
<path d="M17.8762 16.5196C16.6066 19.3232 14.0411 20.9896 11.0519 20.9896C6.76688 20.9896 3.30193 17.2341 3.30193 12.6053C3.30193 7.97659 6.79317 4.22051 11.0519 4.22051C14.1468 4.22051 16.6329 5.86015 17.8762 8.69049L17.9293 8.82296H21.1561L21.0504 8.50544C19.6215 4.00866 15.7865 1.23193 11.0519 1.23193C5.07409 1.23193 0.233887 6.31014 0.233887 12.5785C0.233887 18.8469 5.07409 23.9519 11.0519 23.9519C15.7334 23.9519 19.5689 21.1484 21.0499 16.6521L21.1555 16.3346H17.955L17.8762 16.5196ZM30.6514 21.069C27.8478 21.069 25.5731 18.583 25.5731 15.5145C25.5731 12.3935 27.8478 9.88066 30.6514 9.88066C33.455 9.88066 35.8091 12.4729 35.8091 15.5145C35.7829 18.5299 33.4287 21.069 30.6514 21.069ZM35.8885 9.43119C35.2516 8.65585 34.4528 8.02919 33.5481 7.59512C32.6434 7.16105 31.6548 6.93007 30.6514 6.91837C26.0756 6.91837 22.4782 10.6739 22.4782 15.4882C22.4782 20.2757 26.0756 24.0313 30.6514 24.0313C31.6572 24.0183 32.6478 23.784 33.5529 23.3452C34.458 22.9064 35.2554 22.2738 35.8885 21.4922V23.6344H38.8772V7.31527H35.8885V9.43119ZM49.0076 6.91837C48.1965 6.90899 47.3919 7.06344 46.642 7.37247C45.892 7.68149 45.2122 8.13872 44.6432 8.71677V7.31475H41.6545V23.6339H44.7494V13.7156C44.7494 11.4409 46.389 9.80128 48.6638 9.80128C50.5947 9.80128 51.9174 10.9384 52.2344 12.8429V12.896L55.3024 12.8697V12.7904C54.8798 9.19305 52.4994 6.91837 49.0076 6.91837Z" fill="white"/>
<path d="M10.3645 10.1187H12.3748V16.0169H10.3645V10.1187Z" fill="white"/>
<path d="M15.0989 12.182C15.7417 12.182 16.2628 11.6609 16.2628 11.0181C16.2628 10.3753 15.7417 9.85425 15.0989 9.85425C14.4561 9.85425 13.9351 10.3753 13.9351 11.0181C13.9351 11.6609 14.4561 12.182 15.0989 12.182Z" fill="white"/>
<path d="M7.6131 12.182C8.2559 12.182 8.77699 11.6609 8.77699 11.0181C8.77699 10.3753 8.2559 9.85425 7.6131 9.85425C6.97031 9.85425 6.44922 10.3753 6.44922 11.0181C6.44922 11.6609 6.97031 12.182 7.6131 12.182Z" fill="white"/>
<path d="M119.207 23.8816C115.325 23.8816 112.507 21.0636 112.507 17.1812V7.49182H115.222V17.1807C115.222 19.5961 116.824 21.2193 119.207 21.2193C121.575 21.2193 123.166 19.5961 123.166 17.1807V7.49182H125.908V17.1807C125.907 21.0641 123.089 23.8816 119.207 23.8816ZM87.6251 23.8816C83.7427 23.8816 80.9246 21.0636 80.9246 17.1812V7.49182H83.6396V17.1807C83.6396 19.5961 85.2416 21.2193 87.6251 21.2193C89.9932 21.2193 91.5839 19.5961 91.5839 17.1807V7.49182H94.3257V17.1807C94.3257 21.0641 91.5076 23.8816 87.6251 23.8816ZM135.553 13.2927C132.326 12.7901 131.744 12.3669 131.744 11.4943C131.744 10.3835 133.226 9.51084 135.104 9.51084C137.061 9.51084 138.357 10.3835 138.674 11.8649L138.727 12.0499H141.848L141.822 11.7855C141.478 8.61138 138.913 6.62793 135.13 6.62793C130.686 6.62793 128.677 9.19332 128.677 11.5742C128.677 14.7215 131.11 15.7004 135.051 16.2555C138.86 16.7581 139.151 17.525 139.151 18.4771C139.151 19.641 137.882 20.8311 135.422 20.8311C133.174 20.8311 131.534 19.7466 131.216 18.0276L131.19 17.8426H128.095L128.122 18.107C128.571 21.5187 131.428 23.7408 135.422 23.7408C139.442 23.7408 142.14 21.5718 142.14 18.3451C142.165 14.6416 139.309 13.8746 135.553 13.2927ZM67.0205 12.9226V15.6467H73.8184L73.8978 15.5143C74.0937 15.0932 74.236 14.6488 74.321 14.1916C74.4076 13.7731 74.4607 13.3489 74.4798 12.9221L67.0205 12.9226Z" fill="white"/>
<path d="M75.6964 12.9225C75.5377 17.4719 72.2578 20.9104 68.1052 20.9104C63.7676 20.9104 60.2232 17.1549 60.2232 12.5787C60.2232 7.97627 63.7676 4.22071 68.1052 4.22071C71.0413 4.22071 73.5542 5.88716 74.85 8.69068L74.9031 8.82316H78.2093L78.1036 8.50564C76.5433 4.00937 72.6284 1.12646 68.1057 1.12646C62.0485 1.12646 57.1289 6.25776 57.1289 12.5524C57.1289 18.8471 62.0485 23.9784 68.1057 23.9784C69.474 23.983 70.8294 23.714 72.0922 23.1871C73.3549 22.6602 74.4996 21.8862 75.4588 20.9104C76.4913 19.8561 77.3037 18.6069 77.8487 17.2355C78.3936 15.8641 78.6603 14.398 78.633 12.9225H75.6964ZM104.474 6.91857C103.663 6.90919 102.858 7.06364 102.108 7.37267C101.358 7.68169 100.678 8.13892 100.109 8.71697V7.31495H97.1207V23.6341H100.215V13.7158C100.215 11.4411 101.855 9.80148 104.13 9.80148C106.061 9.80148 107.384 10.9386 107.701 12.8431V12.8962L110.769 12.8699V12.7906C110.346 9.19325 107.965 6.91857 104.474 6.91857ZM147.271 7.05104C147.242 6.99881 147.209 6.9493 147.172 6.90311C147.136 6.86029 147.094 6.82325 147.047 6.79332C147.308 6.74746 147.545 6.61333 147.719 6.41343C147.87 6.22117 147.949 5.982 147.942 5.73716C147.952 5.58866 147.925 5.44008 147.864 5.30423C147.804 5.16837 147.711 5.0493 147.594 4.95728C147.271 4.75667 146.893 4.66405 146.514 4.69286H145.301V8.46183H145.96V6.96702H146.294C146.35 6.96353 146.406 6.97361 146.457 6.9964C146.493 7.01754 146.524 7.0464 146.548 7.08094L147.402 8.35667C147.422 8.39134 147.452 8.41958 147.488 8.43825C147.524 8.45691 147.564 8.46525 147.604 8.46234H148.234L147.27 7.05207L147.271 7.05104ZM146.447 6.48456H145.961V5.20006H146.514C146.639 5.19748 146.763 5.21037 146.885 5.23769C146.972 5.25728 147.055 5.29594 147.125 5.3516C147.187 5.40263 147.233 5.47016 147.258 5.54593C147.286 5.63459 147.3 5.72737 147.298 5.82066C147.304 5.91159 147.29 6.00271 147.257 6.08771C147.224 6.1727 147.173 6.24955 147.108 6.31292C146.915 6.44737 146.681 6.50828 146.447 6.48456Z" fill="white"/>
<path d="M67.9726 11.0442C68.6444 11.0442 69.189 10.4996 69.189 9.82779C69.189 9.15596 68.6444 8.61133 67.9726 8.61133C67.3007 8.61133 66.7561 9.15596 66.7561 9.82779C66.7561 10.4996 67.3007 11.0442 67.9726 11.0442Z" fill="white"/>
<path d="M72.6012 11.0442C73.2731 11.0442 73.8177 10.4996 73.8177 9.82779C73.8177 9.15596 73.2731 8.61133 72.6012 8.61133C71.9294 8.61133 71.3848 9.15596 71.3848 9.82779C71.3848 10.4996 71.9294 11.0442 72.6012 11.0442Z" fill="white"/>
<path d="M146.627 9.71532C146.006 9.71522 145.4 9.5311 144.884 9.18625C144.368 8.8414 143.966 8.35129 143.728 7.77791C143.491 7.20453 143.429 6.57361 143.55 5.96494C143.671 5.35626 143.97 4.79716 144.409 4.35833C144.847 3.91949 145.407 3.62063 146.015 3.49953C146.624 3.37843 147.255 3.44053 147.828 3.67798C148.402 3.91543 148.892 4.31756 149.237 4.83353C149.581 5.34951 149.766 5.95615 149.766 6.57675C149.765 7.40894 149.434 8.20685 148.846 8.7953C148.257 9.38375 147.459 9.71464 146.627 9.71532ZM146.627 3.94744C146.107 3.94765 145.599 4.10207 145.166 4.39119C144.734 4.6803 144.397 5.09112 144.198 5.57171C143.999 6.05229 143.947 6.58106 144.049 7.09114C144.151 7.60122 144.401 8.06971 144.769 8.43738C145.137 8.80504 145.606 9.05537 146.116 9.1567C146.626 9.25803 147.155 9.20581 147.635 9.00666C148.116 8.8075 148.526 8.47035 148.815 8.03784C149.104 7.60532 149.258 7.09686 149.258 6.57675C149.257 5.87936 148.98 5.21074 148.486 4.71776C147.993 4.22477 147.324 3.94772 146.627 3.94744Z" fill="white"/>
</svg>
