<svg width="170" height="23" viewBox="0 0 170 23" fill="none" xmlns="http://www.w3.org/2000/svg">
<g clip-path="url(#clip0_126_8936)">
<mask id="mask0_126_8936" style="mask-type:luminance" maskUnits="userSpaceOnUse" x="0" y="0" width="170" height="23">
<path d="M169.999 0.69043H0V22.6259H169.999V0.69043Z" fill="white"/>
</mask>
<g mask="url(#mask0_126_8936)">
<path d="M7.83347 21.2848L12.5495 13.0047L17.2655 21.2848H7.83347ZM6.66824 2.6939L11.7735 11.6582L6.66824 20.6225L1.42289 11.6582L6.66824 2.6939ZM12.5495 10.3125L7.83167 2.03061H17.2655L12.5495 10.3125ZM13.3155 11.6591L18.9908 1.69262C19.1733 1.37188 19.063 0.962102 18.7433 0.778564C18.6431 0.720414 18.5284 0.69043 18.4126 0.69043H6.6845C6.44875 0.69043 6.23015 0.816726 6.11092 1.02116L0.0914572 11.3193C-0.0304857 11.5282 -0.0304857 11.7881 0.0914572 11.9971L6.11092 22.2952C6.23015 22.5006 6.44875 22.6259 6.6845 22.6259H18.4126C18.7803 22.6259 19.0784 22.3261 19.0793 21.9562C19.0793 21.8391 19.0495 21.7246 18.9917 21.6228L13.3155 11.6572V11.6591Z" fill="white"/>
<path d="M28.8826 17.5145C28.1536 17.2055 27.497 16.7468 26.9532 16.168C26.4139 15.5819 25.9966 14.8941 25.7247 14.1436C25.4321 13.3404 25.2858 12.4917 25.292 11.6367C25.2848 10.7836 25.4276 9.93583 25.713 9.13263C25.9767 8.38394 26.3868 7.69613 26.918 7.10827C27.4445 6.52858 28.0849 6.06519 28.7986 5.74627C29.5808 5.40645 30.4263 5.23836 31.2781 5.25199C31.9935 5.242 32.7052 5.35285 33.3846 5.5809C33.9762 5.78261 34.5263 6.08972 35.0104 6.48769C35.4711 6.87293 35.8532 7.3445 36.1342 7.87694C36.4295 8.44028 36.6309 9.04813 36.7303 9.67688H33.6212C33.5245 9.16534 33.2671 8.69832 32.885 8.34669C32.484 7.98688 31.9601 7.79699 31.4226 7.81788C30.4552 7.81788 29.7299 8.1586 29.2466 8.84096C28.7634 9.52333 28.5212 10.4528 28.5204 11.6295C28.5204 12.7752 28.7507 13.6975 29.2113 14.3953C29.6721 15.093 30.3938 15.4429 31.3747 15.4429C31.9547 15.4674 32.5256 15.2884 32.9898 14.9377C33.4134 14.5997 33.679 14.0854 33.7847 13.3949H36.8505C36.7665 14.647 36.2001 15.8172 35.2706 16.655C34.7837 17.0865 34.2201 17.4218 33.6095 17.6426C32.9157 17.8934 32.1823 18.0169 31.4443 18.0069C30.5654 18.0215 29.6937 17.8534 28.8816 17.5126L28.8826 17.5145Z" fill="white"/>
<path d="M41.7964 7.16097C42.1677 6.57948 42.6626 6.08791 43.2462 5.72175C43.7764 5.40192 44.4548 5.242 45.2822 5.242C45.8658 5.23383 46.4438 5.35013 46.9786 5.58455C47.4727 5.80262 47.9153 6.12244 48.2775 6.52495C48.6451 6.942 48.9315 7.42538 49.1202 7.94964C49.3289 8.53478 49.4318 9.15263 49.4237 9.77412V17.6599H46.2451V10.2439C46.2712 9.66237 46.0797 9.09176 45.7076 8.64472C45.3481 8.23677 44.8333 8.03233 44.163 8.03233C43.4964 8.01415 42.856 8.29492 42.4143 8.79828C41.9536 9.30892 41.7224 9.97946 41.7224 10.8099V17.6589H38.5437V0.829834H41.7224V7.16097H41.7964Z" fill="white"/>
<path d="M55.1616 8.41897C54.7253 8.88236 54.4363 9.51383 54.2953 10.3134H59.6328C59.6165 9.61741 59.3455 8.95141 58.8732 8.44259C58.4053 7.96194 57.7576 7.70208 57.0901 7.7248C56.2419 7.7248 55.6006 7.95649 55.1652 8.41897H55.1616ZM54.6847 17.515C53.1907 16.9035 52.0381 15.666 51.5267 14.1268C51.2495 13.3173 51.1104 12.465 51.1167 11.6091C51.1104 10.7541 51.2567 9.90454 51.5493 9.10224C51.8195 8.35719 52.2332 7.67301 52.767 7.08969C53.8681 5.8985 55.419 5.23159 57.0358 5.2543C57.9121 5.23704 58.781 5.41785 59.5786 5.78311C60.3021 6.12929 60.9353 6.64083 61.4268 7.27776C61.9461 7.96285 62.3318 8.74152 62.5613 9.57199C62.8277 10.5333 62.9569 11.5282 62.946 12.5267H54.252C54.3757 13.4672 54.6937 14.204 55.2059 14.7383C55.718 15.2726 56.4235 15.5388 57.3231 15.5379C57.9464 15.5379 58.445 15.4033 58.8207 15.138C59.1956 14.8691 59.4811 14.4912 59.6391 14.056H62.7754C62.6643 14.5929 62.4619 15.1062 62.1774 15.5733C61.8829 16.0585 61.5026 16.4847 61.0555 16.8317C60.565 17.2087 60.0158 17.4986 59.4295 17.6922C58.7576 17.912 58.0539 18.0193 57.3475 18.012C56.4361 18.0292 55.5301 17.8602 54.6856 17.5168L54.6847 17.515Z" fill="white"/>
<path d="M67.7108 17.5168C66.981 17.2078 66.3234 16.7491 65.7796 16.1703C65.2412 15.5833 64.8239 14.8955 64.5511 14.1459C64.2585 13.3427 64.1122 12.494 64.1184 11.6391C64.1112 10.7859 64.254 9.93815 64.5394 9.13495C64.8031 8.38626 65.2132 7.69845 65.7444 7.11059C66.2728 6.53362 66.9141 6.07297 67.6277 5.75677C68.41 5.41695 69.2554 5.24886 70.1073 5.26249C70.8226 5.25249 71.5344 5.36334 72.2136 5.59141C72.8053 5.79312 73.3554 6.10022 73.8396 6.49819C74.3011 6.88344 74.6823 7.355 74.9632 7.88744C75.2586 8.45078 75.4601 9.05863 75.5594 9.68739H72.4477C72.3509 9.17584 72.0935 8.70882 71.7114 8.35719C71.3104 7.99738 70.7865 7.80748 70.2491 7.82839C69.2816 7.82839 68.5563 8.16911 68.0731 8.85147C67.5897 9.53383 67.3477 10.4633 67.3468 11.64C67.3468 12.7858 67.5771 13.7079 68.0378 14.4058C68.4985 15.1036 69.2202 15.4533 70.2011 15.4533C70.7811 15.4779 71.352 15.2989 71.8162 14.9482C72.2398 14.6102 72.5055 14.096 72.6111 13.4053H75.6768C75.6353 14.0305 75.4735 14.6419 75.1999 15.2054C74.9308 15.7587 74.5568 16.2548 74.0997 16.6655C73.6129 17.0971 73.0492 17.4324 72.4386 17.6531C71.7448 17.9039 71.0114 18.0275 70.2734 18.0175C69.3936 18.0292 68.5211 17.8585 67.7099 17.5149L67.7108 17.5168Z" fill="white"/>
<path d="M80.5295 13.5848V17.6572H77.3716V0.829834H80.5295V10.1494L84.7875 5.58274H88.6021L84.1787 10.173L89.1395 17.6572H85.2789L81.9097 12.1492L80.5295 13.5848Z" fill="white"/>
<path d="M97.4437 14.4761C97.9657 13.7548 98.2269 12.8053 98.2269 11.6286C98.2269 10.452 97.9657 9.49885 97.4437 8.77015C96.9216 8.04145 96.1682 7.67619 95.1845 7.67528C94.201 7.67438 93.4494 8.03964 92.9273 8.77015C92.4043 9.49885 92.1423 10.452 92.1442 11.6286C92.1451 12.8053 92.4061 13.7548 92.9273 14.4761C93.4494 15.1985 94.2018 15.5602 95.1845 15.5602C96.1674 15.5602 96.9197 15.1995 97.4437 14.478V14.4761ZM92.6355 17.5136C91.1343 16.8849 89.9546 15.6646 89.372 14.1372C88.764 12.5227 88.764 10.74 89.372 9.12541C89.9555 7.59805 91.1343 6.37779 92.6355 5.74722C94.2723 5.08849 96.0987 5.08849 97.7364 5.74722C99.2385 6.37961 100.418 7.6035 101 9.13359C101.611 10.7482 101.611 12.5318 101 14.1455C100.417 15.6728 99.2376 16.8931 97.7364 17.5218C96.0996 18.1806 94.2732 18.1806 92.6355 17.5218V17.5136Z" fill="white"/>
<path d="M110.777 16.2448H110.708C110.335 16.7618 109.862 17.197 109.316 17.5242C108.795 17.8303 108.112 17.9829 107.27 17.9829C105.928 17.9829 104.898 17.5904 104.181 16.8063C103.464 16.0222 103.105 14.9627 103.105 13.6298V5.58325H106.263V13.0974C106.263 13.8043 106.422 14.3458 106.74 14.722C107.058 15.0982 107.561 15.2862 108.251 15.2862C108.999 15.2862 109.588 15.0318 110.016 14.5221C110.445 14.0124 110.657 13.3573 110.652 12.5559V5.58325H113.831V17.6576H110.78V16.2439L110.777 16.2448Z" fill="white"/>
<path d="M116.938 5.58172V1.81738H120.05V5.58172H122.108V7.69332H120.05V14.0889C120.05 14.5442 120.158 14.8577 120.377 15.0303C120.627 15.2129 120.932 15.3047 121.241 15.2893H121.85C121.959 15.2893 122.069 15.281 122.176 15.2656V17.6189C122.005 17.6353 121.833 17.6434 121.662 17.6425C121.49 17.6588 121.28 17.6652 121.026 17.6652H120.189C119.8 17.6652 119.411 17.6217 119.031 17.5353C118.657 17.4526 118.303 17.2972 117.989 17.0765C117.666 16.8457 117.407 16.5386 117.23 16.1824C117.02 15.7427 116.92 15.2583 116.937 14.7704V7.69423H115.274V5.58263H116.936L116.938 5.58172Z" fill="white"/>
<path d="M125.904 14.5608C126.847 14.5608 127.609 15.3285 127.609 16.2744C127.609 17.2202 126.847 17.988 125.904 17.988C124.963 17.988 124.201 17.2202 124.201 16.2744C124.201 15.3285 124.963 14.5608 125.904 14.5608Z" fill="white"/>
<path d="M132.196 17.4791C131.531 17.1673 130.943 16.7094 130.477 16.1379C129.994 15.5392 129.632 14.8513 129.412 14.1136C129.163 13.294 129.041 12.4408 129.049 11.584C129.042 10.7263 129.168 9.87311 129.424 9.05445C129.652 8.31758 130.017 7.63068 130.5 7.03009C130.968 6.45586 131.56 5.99701 132.23 5.68899C132.965 5.35735 133.764 5.19381 134.57 5.20925C135.911 5.20925 137.007 5.55452 137.857 6.24324C138.707 6.93287 139.233 7.90598 139.437 9.16259H137.993C137.821 8.25308 137.442 7.57071 136.857 7.11459C136.272 6.65848 135.512 6.43041 134.576 6.43223C133.947 6.41497 133.324 6.55762 132.762 6.84474C132.266 7.11005 131.838 7.48893 131.511 7.95142C131.17 8.44569 130.923 9.00084 130.787 9.58689C130.626 10.2411 130.548 10.9135 130.552 11.5867C130.548 12.2573 130.63 12.926 130.799 13.5756C130.945 14.159 131.193 14.7115 131.53 15.2084C131.849 15.6718 132.274 16.0507 132.77 16.315C133.321 16.5931 133.93 16.7303 134.547 16.7149C135.577 16.7149 136.399 16.4204 137.015 15.8327C137.631 15.2438 138.002 14.4551 138.128 13.4666H139.508C139.367 14.8523 138.868 15.9471 138.009 16.7504C137.152 17.5544 135.997 17.9579 134.547 17.9624C133.737 17.9796 132.935 17.8135 132.196 17.4791Z" fill="white"/>
<path d="M148.184 16.3379C148.694 16.0771 149.134 15.6982 149.471 15.233C149.826 14.736 150.088 14.1772 150.243 13.5849C150.586 12.2747 150.586 10.8981 150.243 9.58787C150.087 8.99546 149.826 8.43668 149.471 7.93967C149.134 7.47447 148.694 7.09557 148.184 6.8348C147.054 6.29964 145.746 6.29964 144.616 6.8348C144.11 7.10011 143.67 7.4781 143.329 7.93967C142.968 8.43486 142.701 8.99365 142.544 9.58787C142.201 10.8981 142.201 12.2747 142.544 13.5849C142.701 14.1791 142.967 14.7378 143.329 15.233C144.044 16.217 145.196 16.7813 146.406 16.7395C147.021 16.7512 147.63 16.6132 148.182 16.3379H148.185H148.184ZM144.051 17.4791C143.371 17.1683 142.768 16.7095 142.283 16.138C141.787 15.5419 141.408 14.8542 141.171 14.1136C140.656 12.4672 140.656 10.7018 141.171 9.05543C141.408 8.31492 141.787 7.62801 142.283 7.03106C142.767 6.45773 143.37 5.9998 144.051 5.68997C144.792 5.35924 145.593 5.19569 146.403 5.21023C147.209 5.19478 148.007 5.35833 148.742 5.68997C149.416 6.00344 150.012 6.46137 150.491 7.03106C150.987 7.6262 151.361 8.31401 151.592 9.05543C152.089 10.7045 152.089 12.4654 151.592 14.1136C151.361 14.855 150.987 15.5428 150.491 16.138C150.012 16.7077 149.416 17.1656 148.742 17.4791C148.007 17.8107 147.209 17.9743 146.403 17.9588C145.593 17.9734 144.792 17.8098 144.051 17.4791Z" fill="white"/>
<path d="M155.477 5.48935V7.32654H155.524C155.904 6.72505 156.406 6.21169 156.997 5.82008C157.591 5.42666 158.324 5.2304 159.198 5.23131C159.899 5.21859 160.59 5.40939 161.186 5.78283C161.779 6.17353 162.218 6.76049 162.426 7.44285H162.472C162.853 6.76412 163.408 6.19988 164.076 5.80737C164.772 5.41484 165.558 5.21677 166.357 5.23222C166.844 5.22858 167.328 5.31218 167.787 5.47845C168.22 5.63564 168.615 5.88459 168.946 6.20714C169.283 6.54515 169.546 6.95038 169.718 7.39651C169.913 7.91441 170.007 8.46503 169.998 9.01927V17.6529H168.568V9.13466C168.568 8.22515 168.329 7.55461 167.854 7.12212C167.345 6.68234 166.689 6.45338 166.019 6.48246C165.586 6.47882 165.157 6.55878 164.754 6.71778C164.368 6.87225 164.014 7.09939 163.714 7.38743C163.4 7.69271 163.156 8.06251 163 8.47139C162.824 8.93022 162.736 9.41815 162.742 9.91061V17.6537H161.291V9.13466C161.291 8.22515 161.061 7.55461 160.601 7.12212C160.124 6.68689 159.497 6.45701 158.852 6.48246C158.415 6.48063 157.982 6.56877 157.58 6.7414C157.177 6.91223 156.808 7.15482 156.491 7.4592C156.169 7.76995 155.911 8.14157 155.732 8.55316C155.544 8.98292 155.447 9.44813 155.452 9.91879V17.6619H154.002V5.48935H155.477Z" fill="white"/>
</g>
</g>
<defs>
<clipPath id="clip0_126_8936">
<rect width="170" height="21.9355" fill="white" transform="translate(0 0.689453)"/>
</clipPath>
</defs>
</svg>
