<svg width="120" height="30" viewBox="0 0 120 30" fill="none" xmlns="http://www.w3.org/2000/svg">
<path fill-rule="evenodd" clip-rule="evenodd" d="M0.335693 21.501L4.61319 18.2246C6.88467 21.1902 9.29689 22.5568 11.9849 22.5568C14.658 22.5568 17.0039 21.206 19.1736 18.2638L23.51 21.4618C20.3817 25.7037 16.4897 27.9449 11.9849 27.9449C7.49495 27.9449 3.56688 25.7195 0.335693 21.501Z" fill="white"/>
<path fill-rule="evenodd" clip-rule="evenodd" d="M11.9712 7.26148L4.35799 13.8217L0.84082 9.73996L11.9864 0.135986L23.0453 9.74743L19.5108 13.8142L11.9712 7.26148Z" fill="white"/>
<path d="M52.7074 5.67432H48.397V23.6345H52.7074V5.67432Z" fill="white"/>
<path fill-rule="evenodd" clip-rule="evenodd" d="M39.686 23.7137C37.145 23.7137 35.0275 22.8903 33.3099 21.2433C31.5924 19.5728 30.7454 17.4318 30.7454 14.8202C30.7454 12.1851 31.6159 10.0205 33.3334 8.32651C35.0745 6.60895 37.192 5.76196 39.7095 5.76196C42.8151 5.76196 45.568 7.10304 47.1677 9.19704L44.368 12.138C43.0268 10.7028 41.5682 9.97347 39.9918 9.97347C38.6508 9.97347 37.545 10.4205 36.6274 11.3381C35.7333 12.2557 35.2863 13.4085 35.2863 14.7967C35.2863 16.1378 35.7333 17.2671 36.6274 18.1847C37.545 19.0788 38.6508 19.5258 39.9683 19.5258C41.6858 19.5258 43.1916 18.7729 44.4385 17.2906L47.3562 20.0905C46.5563 21.1492 45.4738 22.0197 44.1326 22.702C42.7919 23.3844 41.3094 23.7137 39.686 23.7137Z" fill="white"/>
<path fill-rule="evenodd" clip-rule="evenodd" d="M59.1727 7.11118C59.1727 8.4007 58.1278 9.44604 56.8382 9.44604C55.5486 9.44604 54.5032 8.4007 54.5032 7.11118C54.5032 5.8217 55.5486 4.77637 56.8382 4.77637C58.1278 4.77637 59.1727 5.8217 59.1727 7.11118ZM58.9931 10.5236H54.6828V23.6346H58.9931V10.5236Z" fill="white"/>
<path fill-rule="evenodd" clip-rule="evenodd" d="M67.325 23.7373C65.2782 23.7373 63.6311 23.102 62.3373 21.8315C61.0667 20.561 60.4312 18.9376 60.4312 16.9377C60.4312 14.9379 61.0667 13.3144 62.3605 12.0439C63.6548 10.7734 65.3251 10.1382 67.3955 10.1382C70.1015 10.1382 72.4775 11.4557 73.5833 13.9262L70.2659 15.6672C69.6071 14.5614 68.6898 13.9967 67.4898 13.9967C66.6193 13.9967 65.9132 14.2791 65.3487 14.8437C64.8074 15.4084 64.5252 16.1142 64.5252 16.9377C64.5252 18.6553 65.7721 19.9258 67.4429 19.9258C68.6425 19.9258 69.7483 19.267 70.219 18.2553L73.5364 20.2316C72.4069 22.3962 70.0779 23.7373 67.325 23.7373Z" fill="white"/>
<path fill-rule="evenodd" clip-rule="evenodd" d="M78.929 5.67432H74.6187V23.6345H78.929V19.0623L79.434 18.5913L83.3742 23.6345H88.3885L82.3347 15.8863L88.0856 10.5235H82.8186L78.929 14.1508V5.67432Z" fill="white"/>
<path fill-rule="evenodd" clip-rule="evenodd" d="M89.1655 16.8477V5.67432H93.6559V16.5975C93.6559 18.5504 94.7938 19.4914 96.4396 19.4914C98.0614 19.4914 99.2234 18.5033 99.2234 16.5975V5.67432H103.713V16.8477C103.713 21.9768 100.112 23.9061 96.4396 23.9061C92.7905 23.9061 89.1655 21.9768 89.1655 16.8477Z" fill="white"/>
<path fill-rule="evenodd" clip-rule="evenodd" d="M113.412 23.9938C116.884 23.9938 119.698 20.9382 119.698 17.1689C119.698 13.3996 116.884 10.344 113.412 10.344C111.997 10.344 110.691 10.8517 109.64 11.7084V10.5236H105.51V29.0226H109.64V22.6294C110.691 23.4861 111.997 23.9938 113.412 23.9938ZM109.64 17.1759V17.1618C109.644 15.4788 110.969 14.1156 112.604 14.1156C114.241 14.1156 115.567 15.4826 115.567 17.1689C115.567 18.8551 114.241 20.2221 112.604 20.2221C110.969 20.2221 109.644 18.8589 109.64 17.1759Z" fill="white"/>
</svg>
