<svg width="76" height="25" viewBox="0 0 76 25" fill="none" xmlns="http://www.w3.org/2000/svg">
<path d="M52.4649 6.5697V13.6259C52.4649 15.4522 51.8652 16.5388 50.4568 16.5388C49.0553 16.5388 48.4488 15.4522 48.4488 13.6259V6.5697H44.4529V13.8943C44.4529 17.7301 46.8518 19.3142 50.4501 19.3142C53.4218 19.3142 56.4473 17.7301 56.4473 13.8943V6.5697C56.454 6.5697 52.4649 6.5697 52.4649 6.5697ZM22.0478 6.28824C17.9239 6.28824 15.188 8.87379 15.188 12.8929C15.188 16.9251 18.0856 19.3142 21.8119 19.3142C25.2485 19.3142 28.584 17.2326 28.584 12.6768C28.584 8.91961 25.9762 6.28824 22.0478 6.28824ZM21.9265 16.5584C20.2216 16.5584 19.3052 14.9482 19.3052 12.8078C19.3052 10.9553 20.0329 9.05707 21.9399 9.05707C23.7458 9.05707 24.4736 10.9553 24.4736 12.7947C24.4803 15.0464 23.4898 16.5584 21.9265 16.5584ZM12.3444 5.69258C11.0035 6.5828 10.6531 7.9443 10.6531 7.9443C9.92536 7.05409 8.4227 6.34715 6.66398 6.34715C3.72603 6.34715 0.65332 8.89343 0.65332 12.9125C0.65332 16.4799 3.2476 19.2225 6.66398 19.2225C8.07904 19.2225 9.0359 18.8822 9.79733 18.149V18.4174C9.79733 20.6823 8.35532 21.6968 6.46183 21.6968C4.60877 21.6968 3.30151 21.1012 2.48617 20.6496L1.69777 23.5951C2.76244 24.1319 4.87156 24.6555 6.5629 24.6555C8.4564 24.6555 10.3634 24.302 11.7582 23.1303C13.2137 21.8867 13.7124 19.9164 13.7124 17.5272V12.0092C13.7393 10.0978 14.4402 8.75597 15.3026 7.80684C15.3026 7.8003 12.3444 5.69258 12.3444 5.69258ZM7.39847 16.5977C5.69365 16.5977 4.77722 14.9875 4.77722 12.847C4.77722 10.9946 5.50498 9.09635 7.41194 9.09635C9.20435 9.10943 9.9321 10.9946 9.9321 12.8339C9.9321 15.0857 8.95504 16.5977 7.39847 16.5977ZM36.5218 6.28824C32.243 6.28824 29.9115 9.04399 29.9115 13.122V24.3805H33.9006V18.2146C34.6149 18.9346 35.7536 19.3338 37.2765 19.3338C40.1336 19.3338 43.1187 17.1999 43.1187 12.6572C43.1187 8.66434 40.4099 6.28824 36.5218 6.28824ZM36.5083 16.5584C34.8036 16.5584 33.8871 14.9482 33.8871 12.8078C33.8871 10.9553 34.6149 9.05707 36.5218 9.05707C38.3277 9.05707 39.0555 10.9553 39.0555 12.7947C39.0353 15.0464 38.0649 16.5584 36.5083 16.5584ZM75.1598 3.91215V0.940401C74.6073 0.783304 73.92 0.672027 73.0508 0.672027C71.885 0.672027 70.5036 0.999313 69.4996 1.91571C68.3608 2.94994 67.8824 4.60599 67.8824 6.08533V6.55006H63.7585V5.92168C63.6979 2.91066 66.7301 3.78778 67.0804 3.89906V0.927309C66.5212 0.770212 65.8339 0.658936 64.9646 0.658936C63.7989 0.658936 62.4175 0.986221 61.4135 1.90262C60.2747 2.93684 59.7963 4.58636 59.7963 6.07223V6.53698H58.0914V9.39746H59.7963V19.0327C59.7963 21.6771 57.9027 21.2975 57.0605 21.1666L56.636 24.0272C57.0403 24.1841 57.6871 24.3413 58.3408 24.3413C60.1467 24.3544 61.427 23.8176 62.2894 22.9995C63.3676 21.9652 63.7787 20.4793 63.7787 19.0066L63.8056 9.404H67.8959V19.0393C67.9565 21.8277 65.7126 21.2582 65.1601 21.1732L64.7356 24.0336C65.1399 24.1907 65.7867 24.3478 66.4403 24.3478C68.2462 24.361 69.5266 23.8242 70.389 23.0059C71.4671 21.9718 71.8715 20.4859 71.8715 19.0131L71.8985 9.41054H75.1733V6.5697H71.8512V5.93478C71.8918 2.89102 74.8094 3.81396 75.1598 3.91215Z" fill="white"/>
</svg>
