<svg width="120" height="29" viewBox="0 0 120 29" fill="none" xmlns="http://www.w3.org/2000/svg">
<path d="M41.2961 10.3582C41.2961 9.78566 40.8545 9.31592 40.2363 9.31592C39.6181 9.31592 39.1765 9.78566 39.1765 10.3582V18.8136C39.1765 19.3862 39.6181 19.856 40.2363 19.856C40.8692 19.856 41.2961 19.3862 41.2961 18.8136V10.3582Z" fill="white"/>
<path d="M51.7324 9.31592C51.1142 9.31592 50.6873 9.78566 50.6873 10.3582V13.9694L50.7461 17.1989L49.4656 14.1748L47.7876 10.7398C47.2725 9.66822 46.6838 9.31592 45.8447 9.31592C44.6084 9.31592 44.0637 10.0939 44.0637 11.2096V18.8136C44.0637 19.3862 44.4905 19.856 45.1088 19.856C45.727 19.856 46.1538 19.3862 46.1538 18.8136L46.1391 15.2465L46.095 11.5913L47.4638 14.9382L49.1565 18.4319C49.6865 19.5476 50.2458 19.8706 51.0994 19.8706C52.2034 19.8706 52.7774 19.1953 52.7774 17.9476V10.3582C52.7774 9.78566 52.3506 9.31592 51.7324 9.31592Z" fill="white"/>
<path d="M60.5925 11.4738L62.9917 11.5325C63.5511 11.5472 63.9927 11.1215 63.9927 10.5049C63.9927 9.88839 63.5511 9.46268 62.9917 9.46268L56.0443 9.448C55.4998 9.448 55.0435 9.87371 55.0435 10.4903C55.0435 11.1068 55.4998 11.5325 56.0443 11.5178L58.4583 11.4738V18.8136C58.4583 19.3862 58.8998 19.8559 59.5181 19.8559C60.1509 19.8559 60.5925 19.3862 60.5925 18.8136V11.4738Z" fill="white"/>
<path d="M67.705 19.7238H72.8714C73.416 19.7238 73.8576 19.3128 73.8576 18.7402C73.8576 18.1531 73.416 17.742 72.8714 17.742L68.3821 17.7567V15.3052H72.2679C72.7978 15.3052 73.2246 14.9088 73.2246 14.3657C73.2246 13.8078 72.7978 13.4115 72.2679 13.4115L68.3821 13.4409V11.4151H72.8714C73.416 11.4151 73.8576 11.0041 73.8576 10.4169C73.8576 9.82969 73.416 9.43335 72.8714 9.43335L67.7197 9.44802C66.7776 9.44802 66.2478 9.97649 66.2478 10.916V18.2558C66.2478 19.1953 66.7776 19.7238 67.705 19.7238Z" fill="white"/>
<path d="M82.2722 15.5401C83.6704 15.1731 84.4948 14.0868 84.4948 12.6482C84.4948 11.0481 83.4497 9.448 80.9475 9.448H77.7092C76.7673 9.448 76.2373 9.97646 76.2373 10.916V18.8136C76.2373 19.3861 76.6789 19.8559 77.3266 19.8559C77.9595 19.8559 78.4158 19.3861 78.4158 18.8136L78.4011 16.0538H80.1821L81.9925 19.3127C82.2869 19.8119 82.905 20.0173 83.4792 19.7238C84.0532 19.4155 84.2151 18.7989 83.906 18.2999L82.2722 15.5401ZM78.4011 11.4004H80.9621C81.8306 11.4004 82.3752 11.9435 82.3752 12.7509C82.3752 13.5436 81.8601 14.1309 80.9916 14.1309H78.4011V11.4004Z" fill="white"/>
<path d="M90.9959 19.9146C93.1449 19.9146 94.5285 18.9458 94.9995 17.3751C95.2497 16.4796 94.7199 15.8337 93.925 15.8337C93.4392 15.8337 93.1155 16.0832 92.9241 16.6264C92.6298 17.4485 91.9085 17.9623 90.8782 17.9623C89.2444 17.9623 88.5378 16.8612 88.5378 14.5712C88.5378 12.3253 89.259 11.2537 90.8782 11.2537C91.8938 11.2537 92.4826 11.6794 92.8505 12.6629C93.0566 13.2208 93.3952 13.4703 93.8955 13.4703C94.6609 13.4703 95.2202 12.8537 94.9848 12.0023C94.5138 10.2701 93.1449 9.30127 90.937 9.30127C87.905 9.30127 86.3594 11.1509 86.3594 14.5712C86.3594 18.0209 87.905 19.9146 90.9959 19.9146Z" fill="white"/>
<path d="M101.461 19.8852C104.581 19.8852 106.126 17.9768 106.126 14.5711C106.126 11.1361 104.537 9.24243 101.461 9.24243C98.3696 9.24243 96.824 11.1655 96.8093 14.5711C96.8093 17.9914 98.3843 19.8852 101.461 19.8852ZM101.461 17.9181C99.7237 17.9181 98.9731 16.8172 98.9731 14.5711C98.9731 12.2958 99.7385 11.1948 101.446 11.1948C103.168 11.1948 103.978 12.2958 103.963 14.5711C103.963 16.8318 103.197 17.9181 101.461 17.9181Z" fill="white"/>
<path d="M119.828 11.1509C119.828 9.99121 119.107 9.30127 117.988 9.30127C117.076 9.30127 116.384 9.80038 116.045 10.9454L114.912 14.63L114.161 17.287L113.44 14.63L112.233 10.9454C111.895 9.87378 111.306 9.30127 110.275 9.30127C109.142 9.30127 108.436 9.97653 108.436 11.1509V18.8137C108.436 19.3862 108.848 19.856 109.451 19.856C110.055 19.856 110.467 19.3862 110.467 18.8137L110.452 15.1144L110.349 11.1509L111.512 15.2025L112.748 18.7843C113.013 19.577 113.514 19.8413 114.161 19.8413C114.765 19.8413 115.25 19.621 115.501 18.8137L116.678 15.2025L117.929 11.1216L117.812 15.1144V18.8137C117.812 19.3862 118.238 19.856 118.827 19.856C119.431 19.856 119.843 19.3862 119.843 18.8137L119.828 11.1509Z" fill="white"/>
<path d="M23.8253 15.9585C23.8253 16.2032 23.7289 16.4378 23.5573 16.6107C23.3856 16.7837 23.1529 16.881 22.9101 16.881C22.6673 16.881 22.4345 16.7837 22.2629 16.6107C22.0913 16.4378 21.9949 16.2032 21.9949 15.9585V7.71814C21.9949 7.47351 22.0913 7.2389 22.2629 7.06593C22.4345 6.89294 22.6673 6.79576 22.9101 6.79576C23.1529 6.79576 23.3856 6.89294 23.5573 7.06593C23.7289 7.2389 23.8253 7.47351 23.8253 7.71814V15.9585ZM23.5076 21.6681C23.3866 21.7901 19.983 24.6487 13.743 24.6487C7.50308 24.6487 4.12215 21.8054 3.97845 21.6833C3.88789 21.6064 3.81329 21.5122 3.75893 21.4061C3.70457 21.3 3.67152 21.1842 3.66169 21.0651C3.65186 20.9462 3.66541 20.8265 3.7016 20.7127C3.73778 20.5991 3.79588 20.4937 3.87255 20.4027C4.03052 20.2185 4.25433 20.1048 4.4952 20.0861C4.73607 20.0676 4.97445 20.1458 5.15836 20.3036C5.21131 20.3418 8.25187 22.8268 13.7354 22.8268C19.219 22.8268 22.2823 20.3265 22.3126 20.3036C22.4986 20.1471 22.7377 20.07 22.9792 20.0885C23.2208 20.107 23.4456 20.2197 23.6059 20.4027C23.7602 20.5842 23.8373 20.8197 23.8203 21.058C23.8033 21.2963 23.6937 21.5184 23.5152 21.6757L23.5076 21.6681ZM3.65322 7.71814C3.66689 7.47274 3.77641 7.24276 3.95782 7.07851C4.13923 6.91423 4.37779 6.82903 4.62135 6.8415C4.84714 6.85443 5.0602 6.95115 5.21941 7.11303C5.37864 7.2749 5.47275 7.49047 5.4836 7.71814V15.9433C5.4836 16.1879 5.38717 16.4225 5.21555 16.5955C5.04391 16.7685 4.81113 16.8657 4.56841 16.8657C4.32568 16.8657 4.0929 16.7685 3.92126 16.5955C3.74964 16.4225 3.65322 16.1879 3.65322 15.9433V7.71814ZM8.24431 5.88864C8.25798 5.64323 8.3675 5.41326 8.54891 5.249C8.73032 5.08473 8.96888 4.99953 9.21245 5.012C9.43824 5.02492 9.65129 5.12165 9.81051 5.28352C9.96973 5.4454 10.0638 5.66096 10.0747 5.88864V18.0853C10.0747 18.33 9.97827 18.5646 9.80664 18.7376C9.63501 18.9105 9.40222 19.0077 9.1595 19.0077C8.91678 19.0077 8.684 18.9105 8.51236 18.7376C8.34073 18.5646 8.24431 18.33 8.24431 18.0853V5.88864ZM12.8581 5.43126C12.8581 5.18663 12.9545 4.95202 13.1262 4.77905C13.2978 4.60606 13.5306 4.50888 13.7732 4.50888C14.016 4.50888 14.2488 4.60606 14.4204 4.77905C14.5921 4.95202 14.6885 5.18663 14.6885 5.43126V18.6952C14.6885 18.9398 14.5921 19.1744 14.4204 19.3474C14.2488 19.5204 14.016 19.6175 13.7732 19.6175C13.5306 19.6175 13.2978 19.5204 13.1262 19.3474C12.9545 19.1744 12.8581 18.9398 12.8581 18.6952V5.43126ZM17.3963 5.88864C17.3963 5.64401 17.4927 5.4094 17.6643 5.23641C17.836 5.06344 18.0687 4.96626 18.3114 4.96626C18.5542 4.96626 18.7869 5.06344 18.9586 5.23641C19.1302 5.4094 19.2266 5.64401 19.2266 5.88864V18.0853C19.2266 18.33 19.1302 18.5646 18.9586 18.7376C18.7869 18.9105 18.5542 19.0077 18.3114 19.0077C18.0687 19.0077 17.836 18.9105 17.6643 18.7376C17.4927 18.5646 17.3963 18.33 17.3963 18.0853V5.88864ZM24.0748 0.857498H3.44143C2.99183 0.854486 2.54607 0.94088 2.12966 1.11173C1.71324 1.28259 1.33435 1.53455 1.01468 1.85318C0.695018 2.17182 0.44085 2.55087 0.266736 2.96865C0.0926213 3.38641 0.00197945 3.83469 0 4.28782V24.8698C0.00197945 25.3228 0.0926213 25.7712 0.266736 26.189C0.44085 26.6066 0.695018 26.9858 1.01468 27.3044C1.33435 27.623 1.71324 27.875 2.12966 28.0458C2.54607 28.2167 2.99183 28.303 3.44143 28.3H24.0748C24.5238 28.303 24.969 28.217 25.3849 28.0465C25.8008 27.8762 26.1794 27.6249 26.499 27.307C26.8185 26.9893 27.0728 26.6111 27.2474 26.1942C27.422 25.7773 27.5134 25.3298 27.5163 24.8774V4.28782C27.5143 3.83534 27.4239 3.38769 27.2503 2.97042C27.0767 2.55314 26.8232 2.17443 26.5042 1.85589C26.1854 1.53736 25.8075 1.28524 25.3919 1.11393C24.9764 0.942628 24.5314 0.855491 24.0824 0.857498" fill="white"/>
</svg>
