<svg width="140" height="25" viewBox="0 0 140 25" fill="none" xmlns="http://www.w3.org/2000/svg">
<path d="M58.2549 24.5902C57.9776 24.5525 57.7004 24.4947 57.4134 24.409C57.0419 24.2978 56.6808 24.1524 56.3373 23.9731C55.8217 23.7044 55.3596 23.3609 54.9371 22.9626C54.9018 22.9292 54.8593 22.9036 54.8203 22.8745C54.8155 22.9219 54.8064 22.9687 54.8064 23.0161C54.8051 23.3913 54.807 23.7658 54.8058 24.1409C54.8051 24.2667 54.8027 24.268 54.6793 24.268C53.8081 24.2698 52.9362 24.271 52.065 24.2722C51.9519 24.2722 51.9519 24.271 51.9494 24.1537C51.9488 24.1281 51.9494 24.1032 51.9494 24.0777C51.9494 16.8579 51.9494 9.63864 51.9501 2.41883C51.9501 2.16469 51.8996 2.21637 52.1568 2.07228C52.9782 1.61203 53.8001 1.1524 54.6215 0.692153C54.807 0.588188 54.807 0.58758 54.807 0.800982C54.807 3.45058 54.807 6.10017 54.8076 8.75038C54.8076 8.8051 54.8131 8.86042 54.8161 8.91514C54.8611 8.87988 54.9115 8.84887 54.9505 8.80753C55.3919 8.33634 55.9038 7.95939 56.4826 7.67668C57.0839 7.38302 57.7186 7.19941 58.3868 7.14287C59.01 7.09058 59.6313 7.0997 60.249 7.20671C61.3562 7.39883 62.3417 7.85847 63.2008 8.58136C63.8197 9.1024 64.314 9.72923 64.7153 10.429C65.2035 11.2808 65.5197 12.1964 65.6948 13.1595C65.7805 13.6319 65.8486 14.1092 65.8948 14.587C65.9325 14.9792 65.9307 15.3762 65.9386 15.7708C65.9495 16.3234 65.9282 16.8749 65.8772 17.4251C65.7726 18.5444 65.5561 19.6376 65.1202 20.6796C64.8424 21.343 64.4836 21.9558 64.0198 22.5072C62.9838 23.7384 61.293 24.5951 59.6769 24.6437C59.1778 24.6589 58.7175 24.6528 58.2549 24.5902ZM54.8064 15.8541C54.8064 17.1102 54.807 18.3663 54.8051 19.623C54.8051 19.7227 54.8264 19.8084 54.8811 19.8941C55.1231 20.2729 55.4131 20.6109 55.7542 20.9009C56.7999 21.7898 58.0135 22.137 59.3693 21.9832C60.1767 21.892 60.8668 21.5381 61.451 20.9782C61.8596 20.5866 62.1472 20.1112 62.3752 19.5986C62.7843 18.6794 62.9521 17.7048 63.0111 16.7089C63.0427 16.183 63.0373 15.6565 63.0148 15.1294C62.9825 14.3882 62.8828 13.6586 62.6834 12.943C62.5041 12.2986 62.2371 11.6948 61.8274 11.161C61.5179 10.7579 61.144 10.4308 60.6941 10.1901C60.2825 9.9706 59.8447 9.84171 59.3833 9.78213C58.7795 9.70431 58.1801 9.71099 57.5903 9.87272C56.4443 10.1877 55.5511 10.8564 54.8787 11.8304C54.8246 11.9089 54.8045 11.9903 54.8045 12.0858C54.8076 13.3413 54.8064 14.5974 54.8064 15.8541Z" fill="white"/>
<path d="M99.7126 24.6743C98.4224 24.6579 97.1529 24.2906 96.1315 23.5155C95.1746 22.7895 94.5909 21.8277 94.3337 20.661C94.2 20.0548 94.141 19.4395 94.1611 18.8206C94.1811 18.2017 94.2693 17.5913 94.4717 17.0015C94.8007 16.0439 95.3874 15.284 96.2203 14.7124C97.1074 14.1039 98.0844 13.7233 99.1471 13.5591C99.746 13.4667 100.347 13.4636 100.95 13.4904C101.812 13.5293 102.647 13.6929 103.458 13.9835C103.883 14.1355 104.299 14.3075 104.688 14.538C104.742 14.5702 104.758 14.5617 104.756 14.4936C104.742 13.7798 104.79 13.0642 104.694 12.3535C104.649 12.0215 104.569 11.6975 104.451 11.3837C104.209 10.7447 103.77 10.2918 103.156 9.99996C102.792 9.82669 102.408 9.72394 102.01 9.66679C101.182 9.54762 100.362 9.6072 99.5484 9.77562C98.3829 10.017 97.3129 10.4809 96.3492 11.1837C96.2282 11.2719 96.2282 11.27 96.1784 11.1247C95.9437 10.4401 95.709 9.75616 95.4743 9.07157C95.4646 9.04299 95.4567 9.0132 95.4445 8.98584C95.4147 8.92018 95.4251 8.87762 95.495 8.8381C95.7722 8.68064 96.0397 8.50493 96.3212 8.35597C97.2575 7.85986 98.2485 7.51513 99.2894 7.31389C100.219 7.13453 101.157 7.07799 102.101 7.13696C102.822 7.18135 103.529 7.29686 104.21 7.5431C104.877 7.78386 105.47 8.14318 105.969 8.65206C106.247 8.93599 106.478 9.2564 106.669 9.60356C107.007 10.2182 107.205 10.8785 107.317 11.5686C107.412 12.1607 107.442 12.756 107.442 13.3542C107.44 16.8501 107.441 20.3454 107.441 23.8413C107.441 23.9526 107.439 24.0645 107.442 24.1757C107.444 24.2377 107.425 24.273 107.356 24.2663C107.331 24.2639 107.306 24.2663 107.28 24.2663C106.495 24.2675 105.71 24.2694 104.924 24.27C104.73 24.27 104.754 24.276 104.754 24.0961C104.754 23.6857 104.756 23.2753 104.755 22.8649C104.755 22.8284 104.742 22.7913 104.736 22.7549C104.704 22.7768 104.668 22.7962 104.639 22.8217C104.552 22.899 104.469 22.981 104.381 23.0564C103.132 24.1143 101.405 24.6962 99.7126 24.6743ZM104.755 18.5032H104.755C104.755 18.0576 104.753 17.6113 104.756 17.1657C104.757 17.0787 104.73 17.0289 104.654 16.9845C104.038 16.6258 103.391 16.3449 102.699 16.168C102.072 16.0081 101.436 15.9442 100.791 15.9315C100.044 15.9169 99.3301 16.0452 98.6474 16.3467C98.2181 16.5364 97.8163 16.7687 97.5032 17.1292C97.0861 17.6095 96.8599 18.1652 96.8484 18.8036C96.8453 18.9556 96.8477 19.1076 96.8508 19.2596C96.8623 19.8669 97.0611 20.4111 97.4217 20.8957C97.8406 21.4586 98.4072 21.8046 99.079 21.9809C99.8305 22.1779 100.592 22.1931 101.354 22.0624C102.104 21.9335 102.785 21.6283 103.407 21.1936C103.887 20.8586 104.314 20.4646 104.696 20.0208C104.748 19.96 104.756 19.8979 104.756 19.8256C104.755 19.3842 104.755 18.944 104.755 18.5032Z" fill="white"/>
<path d="M40.5229 24.6839C39.251 24.651 37.9651 24.2753 37.0209 23.6041C36.3753 23.1451 35.9035 22.5389 35.5581 21.8288C35.2481 21.191 35.059 20.5149 34.9325 19.8206C34.8194 19.2023 34.7513 18.5785 34.7398 17.9492C34.7313 17.4987 34.7185 17.0476 34.7179 16.5971C34.7161 13.6228 34.7167 10.6492 34.7167 7.6749C34.7167 7.67003 34.7167 7.66456 34.7167 7.6597C34.7161 7.50344 34.7051 7.51013 34.8638 7.51013C35.6341 7.51074 36.4038 7.51074 37.1741 7.51074C37.2653 7.51074 37.3565 7.51013 37.4477 7.51135C37.5693 7.51317 37.5706 7.51378 37.5706 7.63963C37.5706 8.28288 37.5699 8.92674 37.5699 9.56998C37.5699 12.2652 37.5718 14.9604 37.5687 17.6562C37.5681 18.2514 37.6174 18.8399 37.7615 19.4175C37.8873 19.9233 38.0819 20.3988 38.4157 20.8074C38.8814 21.3764 39.4815 21.7321 40.1873 21.9157C40.4676 21.9887 40.754 22.0154 41.0452 22.0136C41.5328 22.0106 42.0167 21.9796 42.491 21.8592C43.4096 21.6251 44.1058 21.1053 44.5417 20.2559C44.7326 19.8844 44.8506 19.4868 44.9296 19.0776C45.022 18.5986 45.0488 18.114 45.0488 17.6264C45.0469 14.3031 45.0476 10.9793 45.0469 7.65605C45.0469 7.63051 45.0482 7.60559 45.0463 7.58005C45.0433 7.52655 45.0719 7.50831 45.1211 7.51013C45.1467 7.51135 45.1716 7.51013 45.1971 7.51013C46.0434 7.51074 46.8891 7.51074 47.7354 7.51135C47.7555 7.51135 47.7762 7.51074 47.7962 7.51196C47.8966 7.5156 47.899 7.51621 47.8996 7.61471C47.9008 7.8427 47.899 8.07069 47.899 8.29869C47.899 13.5675 47.8996 18.8369 47.8996 24.1057C47.8996 24.1312 47.8984 24.1561 47.9002 24.1817C47.9045 24.2473 47.8741 24.2717 47.8096 24.2692C47.7184 24.2656 47.6272 24.268 47.536 24.268C46.7657 24.2692 45.996 24.271 45.2257 24.2704C45.0208 24.2704 45.0482 24.2808 45.0482 24.0887C45.0482 23.6582 45.05 23.2271 45.0512 22.7967C45.0512 22.7711 45.0542 22.7456 45.05 22.7213C45.0488 22.7146 45.0171 22.7049 45.0117 22.7097C44.9788 22.7408 44.9478 22.7748 44.9187 22.8101C44.4627 23.3664 43.9137 23.8084 43.271 24.1306C42.4703 24.5325 41.5006 24.7094 40.5229 24.6839Z" fill="white"/>
<path d="M0 15.2334H15.0835V24.6268L7.54144 20.4742L0 24.6268V15.2334Z" fill="white"/>
<path d="M25.7189 24.6475C24.8884 24.6044 24.0719 24.467 23.2748 24.1885C22.6899 23.9842 22.1354 23.7118 21.6156 23.3738C21.1128 23.0467 20.6519 22.6673 20.2482 22.2217C20.1564 22.1201 20.0658 22.018 19.9777 21.9134C19.9199 21.8447 19.9211 21.8411 19.9905 21.7821C20.3249 21.4951 20.6605 21.2094 20.9955 20.9236C21.2806 20.6804 21.5651 20.4366 21.8509 20.194C21.9421 20.1168 21.9457 20.1162 22.0309 20.205C22.3573 20.5461 22.7081 20.8592 23.0942 21.1328C23.6706 21.5407 24.2968 21.8399 24.9887 21.9949C25.5523 22.1207 26.1226 22.1329 26.6953 22.0861C27.1756 22.0466 27.6274 21.9031 28.0621 21.7031C28.6439 21.4362 29.0294 20.9978 29.1339 20.3606C29.2361 19.7362 29.095 19.1629 28.6658 18.6783C28.177 18.1269 27.5927 17.7092 26.9099 17.432C26.2259 17.1535 25.5395 16.8805 24.8537 16.6063C23.9211 16.233 23.0176 15.802 22.1871 15.2311C21.722 14.9113 21.2855 14.5568 20.9468 14.099C20.4325 13.4035 20.1491 12.6259 20.1467 11.7546C20.1461 11.4561 20.1358 11.1576 20.1832 10.8603C20.3431 9.86621 20.8125 9.05212 21.598 8.42468C22.4078 7.77779 23.3368 7.40448 24.3552 7.23486C25.2623 7.08347 26.1706 7.07799 27.0783 7.21418C28.4123 7.41482 29.6021 7.93951 30.6174 8.83568C30.8564 9.04665 31.074 9.28133 31.2953 9.51054C31.4157 9.63518 31.4114 9.64126 31.2728 9.75799C31.102 9.90147 30.9299 10.0425 30.7585 10.1848C30.3493 10.5247 29.9407 10.8645 29.5316 11.2044C29.4531 11.2694 29.4537 11.2664 29.3826 11.194C28.6512 10.4529 27.78 9.96774 26.7561 9.76407C26.1901 9.65159 25.6186 9.63822 25.0477 9.70327C24.5637 9.7586 24.1108 9.92215 23.6943 10.1726C23.1131 10.5222 22.8918 11.1436 22.9647 11.7625C23.0365 12.3705 23.3848 12.7961 23.8846 13.1037C24.5795 13.5317 25.3146 13.8832 26.0788 14.1732C26.6655 14.3957 27.2504 14.6231 27.8274 14.8681C28.6779 15.2298 29.4854 15.6719 30.2216 16.2355C30.7013 16.6027 31.116 17.0277 31.4042 17.5651C31.6334 17.9925 31.7829 18.4461 31.8632 18.9246C31.924 19.2906 31.9471 19.659 31.9465 20.0287C31.9453 21.427 31.389 22.5585 30.294 23.4237C29.0245 24.425 27.2984 24.7302 25.7189 24.6475Z" fill="white"/>
<path d="M73.2743 24.6055C72.6056 24.5228 71.9453 24.3581 71.3039 24.1051C70.6533 23.8492 70.0387 23.5063 69.4751 23.0928C69.0154 22.756 68.6129 22.3566 68.2445 21.9225C68.1788 21.8453 68.1788 21.8428 68.2512 21.7814C68.8817 21.2409 69.514 20.7016 70.1432 20.1593C70.2016 20.1089 70.2253 20.1374 70.2642 20.1782C70.6004 20.5308 70.964 20.853 71.3616 21.1357C72.0499 21.6246 72.8056 21.9583 73.6458 22.0623C74.317 22.1456 74.9901 22.148 75.6497 21.9535C75.9422 21.8672 76.2255 21.7589 76.4912 21.61C76.9417 21.3577 77.2512 20.9868 77.3679 20.4803C77.5223 19.8109 77.3807 19.1999 76.9289 18.6789C76.4821 18.1627 75.9452 17.7584 75.3123 17.4957C74.5085 17.162 73.6993 16.8422 72.8937 16.5139C71.9769 16.1405 71.0965 15.6979 70.291 15.1167C69.8745 14.8164 69.4866 14.485 69.1826 14.0649C68.7801 13.5086 68.5211 12.8939 68.4366 12.2118C68.3661 11.6451 68.3746 11.0785 68.512 10.5209C68.7515 9.54878 69.303 8.79366 70.1207 8.22277C70.8655 7.70294 71.6918 7.39348 72.5806 7.23783C73.3285 7.10712 74.0811 7.0828 74.8363 7.15028C75.747 7.23175 76.6207 7.45427 77.4415 7.86284C77.9558 8.1188 78.4276 8.44103 78.8635 8.81677C79.1292 9.04537 79.3724 9.29586 79.6047 9.55729C79.674 9.63511 79.6746 9.63694 79.5895 9.70807C78.9943 10.2048 78.399 10.7009 77.8038 11.197C77.7169 11.2694 77.7145 11.2712 77.6348 11.1879C77.2895 10.8255 76.8955 10.5264 76.4584 10.285C75.9853 10.0236 75.4838 9.84912 74.9493 9.75306C74.5268 9.67706 74.1042 9.66004 73.6786 9.66977C73.0907 9.68315 72.5369 9.83697 72.028 10.1282C71.4972 10.4322 71.2333 10.8967 71.2224 11.5138C71.2115 12.1084 71.4546 12.5717 71.9088 12.9334C72.0389 13.0368 72.183 13.1237 72.3271 13.2076C72.5417 13.3323 72.7606 13.449 72.9795 13.5651C73.6337 13.9135 74.3255 14.1725 75.018 14.4309C76.0115 14.8018 76.9739 15.2359 77.8725 15.8043C78.2629 16.0512 78.6349 16.3254 78.9669 16.6458C79.5007 17.1607 79.8485 17.7888 80.0345 18.5056C80.2017 19.1495 80.2479 19.8085 80.1859 20.4657C80.0698 21.7054 79.5001 22.7062 78.5073 23.4607C77.8123 23.9884 77.0213 24.2985 76.1732 24.4748C75.2089 24.6748 74.2331 24.7241 73.2743 24.6055Z" fill="white"/>
<path d="M117.131 24.6832C116.156 24.6413 115.194 24.4115 114.353 23.9999C113.196 23.4344 112.342 22.5486 111.698 21.4475C111.211 20.6134 110.907 19.7105 110.714 18.7663C110.478 17.6087 110.402 16.4384 110.452 15.2607C110.5 14.1195 110.657 12.9929 111.019 11.9028C111.39 10.7859 111.952 9.78093 112.784 8.94252C113.666 8.05486 114.732 7.50646 115.959 7.26692C116.734 7.11553 117.516 7.07905 118.302 7.14957C119.058 7.21767 119.791 7.37696 120.487 7.6925C121.423 8.11688 122.156 8.77228 122.712 9.63137C122.949 9.99798 123.141 10.3883 123.303 10.7932C123.32 10.8358 123.337 10.8777 123.351 10.9209C123.381 11.0109 123.375 11.0237 123.289 11.0559C123.171 11.0996 123.051 11.1416 122.932 11.1854C122.229 11.4413 121.525 11.6979 120.822 11.9539C120.711 11.9946 120.708 11.9952 120.661 11.8779C120.557 11.6128 120.422 11.3641 120.264 11.1276C120.013 10.7519 119.7 10.4406 119.31 10.2065C118.935 9.98096 118.527 9.8545 118.095 9.80282C117.417 9.72074 116.75 9.77485 116.103 10.0047C115.337 10.277 114.763 10.7871 114.342 11.4736C113.978 12.0663 113.752 12.7126 113.602 13.3905C113.419 14.2162 113.364 15.0515 113.359 15.8942C113.355 16.5904 113.401 17.281 113.515 17.9668C113.661 18.849 113.929 19.6899 114.434 20.4377C114.999 21.2731 115.782 21.7789 116.779 21.9449C117.081 21.9947 117.386 21.9905 117.689 21.9741C118.033 21.9558 118.373 21.9108 118.705 21.8093C119.467 21.577 120.047 21.118 120.455 20.4365C120.59 20.2097 120.703 19.9726 120.79 19.7233C120.804 19.685 120.819 19.6473 120.833 19.6096C120.877 19.4898 120.878 19.4898 121.004 19.5318C121.177 19.5889 121.35 19.6461 121.523 19.7038C122.152 19.9142 122.78 20.1246 123.408 20.3349C123.522 20.3732 123.523 20.3732 123.487 20.4912C123.098 21.7339 122.397 22.759 121.336 23.5202C120.156 24.3677 118.627 24.7471 117.131 24.6832Z" fill="white"/>
<path d="M88.0988 24.6706C87.3449 24.6287 86.6165 24.4305 86.0334 23.9824C85.5464 23.6079 85.2516 23.1008 85.0613 22.5262C84.9154 22.0861 84.8436 21.6319 84.8187 21.1698C84.8035 20.8865 84.798 20.6026 84.7974 20.3193C84.7956 16.9401 84.7962 13.5615 84.7956 10.1823C84.7956 9.98779 84.8114 10.006 84.612 10.006C83.8216 10.006 83.0312 10.0072 82.2414 10.0079C82.2159 10.0079 82.1904 10.0066 82.1654 10.0085C82.098 10.0145 82.0748 9.98049 82.0791 9.91787C82.0815 9.88261 82.0791 9.84674 82.0791 9.81147C82.0791 9.10256 82.0791 8.39304 82.0791 7.68413C82.0791 7.64887 82.0797 7.613 82.0791 7.57774C82.0785 7.53457 82.0967 7.51147 82.1411 7.51147C82.1819 7.51147 82.222 7.51086 82.2627 7.51086C83.0379 7.51086 83.8131 7.51086 84.5876 7.51147C84.6284 7.51147 84.6691 7.50843 84.7092 7.51147C84.7761 7.51572 84.8004 7.48411 84.7968 7.42088C84.795 7.39048 84.7968 7.36008 84.7968 7.32968C84.7962 5.66806 84.7962 4.00644 84.7925 2.34482C84.7925 2.23477 84.8272 2.17336 84.9257 2.11925C85.7671 1.65293 86.6049 1.18053 87.4433 0.709945C87.6446 0.59686 87.6452 0.595644 87.6452 0.822422C87.6464 2.93456 87.647 5.04731 87.6482 7.15944C87.6482 7.24031 87.6476 7.32178 87.6507 7.40264C87.6549 7.50417 87.6561 7.50599 87.7534 7.50903C87.8446 7.51207 87.9358 7.51147 88.027 7.51147C89.2175 7.51147 90.4079 7.51147 91.5983 7.51207C91.8087 7.51207 91.7825 7.49566 91.7825 7.70177C91.7825 8.42588 91.7819 9.15059 91.7819 9.8747C91.7819 9.90024 91.7892 9.9282 91.7801 9.95009C91.7704 9.97259 91.7485 9.99569 91.7266 10.006C91.7053 10.0151 91.6767 10.0079 91.6518 10.0079C90.3751 10.0072 89.0989 10.0072 87.8221 10.0072C87.6336 10.0072 87.6495 9.98292 87.6495 10.175C87.6488 13.2958 87.6482 16.416 87.6501 19.5368C87.6501 19.8098 87.6519 20.084 87.6768 20.3557C87.7115 20.7327 87.8288 21.0902 88.0118 21.4203C88.1559 21.6812 88.3955 21.8325 88.6757 21.9183C88.9852 22.0125 89.3032 22.032 89.623 22.001C90.0692 21.9578 90.4997 21.8508 90.9076 21.6599C91.0104 21.6118 91.0128 21.6137 91.0511 21.7243C91.2542 22.3177 91.456 22.9117 91.6585 23.5057C91.6913 23.6012 91.7272 23.696 91.76 23.7915C91.791 23.8814 91.7904 23.8821 91.6992 23.9246C91.3132 24.1052 90.9125 24.2554 90.5021 24.3715C89.775 24.5758 88.9214 24.7168 88.0988 24.6706Z" fill="white"/>
<path d="M15.0835 11.3672H0V13.4094H15.0835V11.3672Z" fill="white"/>
<path d="M15.0835 7.50586H0V9.542H15.0835V7.50586Z" fill="white"/>
<path d="M126.43 13.2787C126.43 9.68672 126.43 6.09475 126.43 2.50217C126.43 2.25168 126.405 2.31795 126.608 2.20608C127.143 1.90938 127.677 1.60843 128.212 1.30869C128.543 1.12265 128.873 0.935999 129.204 0.750564C129.279 0.708613 129.288 0.714693 129.291 0.801634C129.294 0.857569 129.293 0.912895 129.293 0.96883C129.293 4.97666 129.293 8.98389 129.293 12.9917C129.293 13.0629 129.291 13.1334 129.291 13.2045C129.291 13.2179 129.299 13.2313 129.302 13.2446C129.319 13.2386 129.338 13.2355 129.354 13.2264C129.367 13.2191 129.375 13.2051 129.386 13.1936C129.75 12.8057 130.113 12.4172 130.478 12.0311C130.91 11.5745 131.345 11.1216 131.775 10.6644C132.181 10.2333 132.584 9.79798 132.989 9.3657C133.151 9.19182 133.316 9.02037 133.48 8.84709C133.869 8.43488 134.26 8.02327 134.646 7.60802C134.715 7.53445 134.788 7.50831 134.886 7.50831C135.9 7.51196 136.912 7.51135 137.926 7.51257C137.98 7.51257 138.034 7.52169 138.088 7.52655C138.056 7.56911 138.029 7.61532 137.992 7.65301C137.289 8.38928 136.585 9.12494 135.88 9.85939C135.648 10.1008 135.414 10.3385 135.182 10.5786C134.727 11.048 134.273 11.518 133.818 11.9879C133.742 12.067 133.741 12.0688 133.792 12.1685C133.96 12.4974 134.13 12.8257 134.299 13.1541C134.989 14.4898 135.679 15.8255 136.369 17.1613C136.86 18.1103 137.349 19.06 137.838 20.0091C138.326 20.9539 138.813 21.8987 139.301 22.8429C139.512 23.2521 139.726 23.66 139.939 24.0686C139.946 24.082 139.954 24.0953 139.96 24.1093C140.028 24.2565 140.019 24.2704 139.861 24.271C138.944 24.271 138.026 24.271 137.109 24.271C137.089 24.271 137.069 24.2686 137.049 24.271C136.968 24.2802 136.922 24.2455 136.884 24.1707C136.639 23.6819 136.39 23.1955 136.142 22.7085C135.549 21.5509 134.954 20.3939 134.361 19.2357C134.027 18.5821 133.697 17.9267 133.364 17.2731C132.864 16.2943 132.365 15.316 131.864 14.339C131.831 14.274 131.782 14.2168 131.74 14.1554C131.689 14.2034 131.635 14.2496 131.586 14.3007C130.845 15.071 130.105 15.8426 129.364 16.6123C129.314 16.6633 129.288 16.7144 129.292 16.7862C129.297 16.8719 129.293 16.9582 129.293 17.0445C129.293 19.4053 129.294 21.7668 129.294 24.1276C129.294 24.1379 129.294 24.1476 129.294 24.158C129.291 24.2704 129.291 24.2704 129.172 24.2717C129.116 24.2723 129.061 24.271 129.005 24.271C128.204 24.2723 127.404 24.2729 126.603 24.2741C126.41 24.2741 126.431 24.2844 126.431 24.1026C126.43 20.493 126.43 16.8859 126.43 13.2787Z" fill="white"/>
</svg>
