<svg width="150" height="25" viewBox="0 0 150 25" fill="none" xmlns="http://www.w3.org/2000/svg">
<path d="M110.21 17.9961C110.24 18.1416 110.187 18.2901 110.075 18.3876C109.514 18.8736 107.877 20.0886 104.81 20.0886C101.571 20.0886 98.8774 17.8536 98.8774 14.0406C98.8774 8.85355 103.233 5.64355 107.16 5.64355C109.985 5.64355 111.168 6.67555 111.665 7.20505C111.783 7.33105 111.81 7.51855 111.732 7.67305L110.622 9.84655C110.543 10.0011 110.337 10.0326 110.213 9.91105C109.73 9.43255 108.758 8.71105 107.102 8.71105C104.808 8.71105 102.717 10.5456 102.717 13.4691C102.717 15.6186 104.036 16.9941 106.013 16.9941C107.613 16.9941 108.837 16.2261 109.388 15.8031C109.538 15.6876 109.757 15.7686 109.794 15.9546L110.207 17.9976L110.21 17.9961Z" fill="white"/>
<path d="M118.234 20.0886C114.593 20.0886 112.072 17.7096 112.072 13.9836C112.072 9.02455 115.999 5.64355 120.527 5.64355C124.168 5.64355 126.689 8.07956 126.689 11.7771C126.689 16.7646 122.762 20.0886 118.234 20.0886ZM118.721 17.0511C121.214 17.0511 122.935 14.7291 122.935 12.0351C122.935 10.0581 121.931 8.59555 120.068 8.59555C117.46 8.59555 115.855 10.9176 115.855 13.6401C115.855 15.5601 116.801 17.0511 118.721 17.0511Z" fill="white"/>
<path d="M129.387 8.39455C129.472 7.76455 129.53 7.30555 129.53 6.78955C129.548 6.60955 129.532 6.41905 129.518 6.23155C129.504 6.05305 129.645 5.90155 129.824 5.90155H132.785C132.949 5.90155 133.084 6.03055 133.092 6.19405C133.1 6.38455 133.112 6.55855 133.112 6.73255C133.112 7.19155 133.055 7.59205 133.027 7.99405C133.027 7.99405 134.399 5.64355 137.64 5.64355C139.332 5.64355 140.363 6.44605 140.707 8.28055C141.853 6.59005 143.517 5.64355 145.522 5.64355C148.187 5.64355 149.075 7.30555 149.075 9.57055C149.075 10.1721 149.018 10.7736 148.903 11.4051L148.072 16.7646C147.987 17.5386 147.842 18.2556 147.842 19.0581C147.842 19.1856 147.842 19.3206 147.847 19.4556C147.853 19.6296 147.714 19.7751 147.54 19.7751H144.567C144.397 19.7751 144.259 19.6371 144.259 19.4676V19.0581C144.259 18.2271 144.344 17.5101 144.545 16.1631L145.204 12.0066C145.289 11.6046 145.318 11.1756 145.318 10.8021C145.318 9.59905 144.945 8.65255 143.655 8.65255C142.022 8.65255 140.904 10.2291 140.532 12.6081L139.425 19.5156C139.402 19.6641 139.273 19.7736 139.123 19.7736H136.162C135.973 19.7736 135.829 19.6056 135.859 19.4181L137.034 11.9766C137.092 11.5746 137.12 11.1741 137.12 10.8021C137.12 9.51205 136.689 8.65255 135.458 8.65255C133.68 8.65255 132.679 10.4301 132.334 12.6081L131.228 19.5156C131.204 19.6641 131.075 19.7736 130.925 19.7736H127.935C127.747 19.7736 127.603 19.6056 127.633 19.4181L129.382 8.39455H129.387Z" fill="white"/>
<path d="M14.486 7.48555C14.876 7.48555 15.0545 7.96705 14.762 8.22355L1.27549 19.9866C0.930492 20.2881 0.414492 19.8906 0.625992 19.4781L4.66399 11.5221H2.29999C1.98649 11.5221 1.78099 11.1906 1.92499 10.9086L6.86449 1.18555C6.93499 1.04155 7.08199 0.956055 7.23949 0.956055H15.134C15.488 0.956055 15.686 1.37455 15.455 1.65055L10.577 7.48105H14.4905L14.4875 7.48705H14.486V7.48555Z" fill="white"/>
<path d="M25.8138 7.61852C24.9393 7.33202 23.6808 6.93752 23.6808 6.23552C23.6808 5.64452 24.4128 5.34602 25.2513 5.34602C26.4753 5.34602 28.0488 5.99702 29.1378 6.93602C29.2608 7.04252 29.4498 7.01552 29.5563 6.89252L32.2083 3.59702C32.3088 3.48002 32.3088 3.30602 32.2053 3.19202C31.0173 1.88102 29.0838 0.676514 26.3088 0.676514C23.9448 0.676514 21.8148 1.33201 20.3103 2.52302C18.6618 3.82802 17.8263 5.32502 17.8263 7.58402C17.8263 10.23 20.2008 11.8575 22.7013 12.804C23.9403 13.2735 24.9333 13.635 24.9333 14.2545C24.9333 14.922 24.0873 15.159 23.3628 15.159C21.9093 15.159 20.0418 14.2695 18.9693 13.3425C18.8433 13.2345 18.6573 13.2405 18.5433 13.362L15.3333 16.665C15.2238 16.782 15.2208 16.9635 15.3288 17.082C16.9473 18.882 20.1483 20.106 22.8153 20.106C27.5283 20.106 30.9078 17.175 30.9078 12.891C30.9078 10.599 29.0958 8.69252 25.8138 7.62002V7.61852Z" fill="white"/>
<path d="M42.4474 5.90308C42.2959 5.90308 42.1684 6.01258 42.1444 6.16108L41.0104 13.2786C40.9339 13.7646 40.7029 15.2421 39.3304 15.2421C38.5534 15.2421 38.1769 14.8101 38.1769 13.9206C38.1769 13.4376 38.3044 12.5811 38.4019 11.9781L39.0694 7.89208C39.1414 7.45708 39.1789 7.04458 39.1789 6.66658C39.1789 6.47308 39.1699 6.31108 39.1579 6.18058C39.1444 6.02308 39.0109 5.90308 38.8519 5.90308H33.7219C33.5464 5.90308 33.4069 6.05008 33.4159 6.22708C33.4219 6.33958 33.4264 6.46858 33.4264 6.61108C33.4264 6.95458 33.3964 7.35508 33.3424 7.77058L32.3134 14.3901C32.2039 14.9931 32.1484 15.6201 32.1484 16.2561C32.1484 18.7386 33.6049 20.1051 36.2479 20.1051C37.6129 20.1051 39.0154 19.5516 40.0924 18.5871L40.4224 18.2916L40.3459 18.7281C40.2874 19.0641 40.3024 19.3281 40.3369 19.5171C40.3639 19.6641 40.4899 19.7721 40.6399 19.7721H45.6469C45.8269 19.7721 45.9664 19.6191 45.9529 19.4406C45.9424 19.3026 45.9349 19.1391 45.9349 18.9531C45.9349 18.6591 45.9649 18.2856 46.0204 17.9031L47.8819 6.25858C47.9119 6.07258 47.7679 5.90308 47.5789 5.90308H42.4519H42.4474Z" fill="white"/>
<path d="M55.6837 7.22574L55.3537 7.52724C55.3537 7.52724 55.4347 7.01424 55.4437 6.80724C55.4542 6.57174 55.4497 6.44124 55.4197 6.20424C55.3987 6.03924 55.2787 5.90424 55.1122 5.90424H50.4157C50.2402 5.90424 50.1007 6.05124 50.1097 6.22824C50.1157 6.34074 50.1202 6.46974 50.1202 6.61224C50.1202 6.97224 50.0887 7.39524 50.0347 7.77324L47.6437 22.6472C47.5687 23.1017 47.5342 23.4617 47.5342 23.8187C47.5342 24.0377 47.5417 24.2147 47.5567 24.3617C47.5732 24.5192 47.7037 24.6377 47.8627 24.6377H53.0272C53.2072 24.6377 53.3467 24.4847 53.3332 24.3062C53.3227 24.1682 53.3152 24.0047 53.3152 23.8187C53.3152 23.5427 53.3152 23.1632 53.4022 22.7582L54.0772 18.2117L54.2962 18.6002C54.8617 19.5992 56.0407 20.1062 57.8032 20.1062C62.6317 20.1062 65.2387 15.5597 65.2387 11.2817C65.2387 9.65424 64.7902 8.26224 63.9412 7.25574C63.0412 6.18924 61.7257 5.62524 60.1387 5.62524C58.4452 5.62524 56.7802 6.22374 55.6837 7.22574ZM56.6647 15.3272C55.5082 15.3272 54.7327 14.5172 54.7327 13.3112C54.7327 11.7872 55.7362 10.2122 57.4162 10.2122C58.5907 10.2122 59.3482 11.0147 59.3482 12.2552C59.3482 13.7657 58.3447 15.3272 56.6647 15.3272Z" fill="white"/>
<path d="M79.3778 17.774L78.2393 15.662C78.1463 15.503 77.9393 15.4445 77.7713 15.53L77.7308 15.551C77.1518 15.8465 76.0748 16.439 74.6228 16.439C72.7283 16.439 71.5493 15.3035 71.5043 14.2055L71.4983 14.054L71.6408 14.1065C71.6558 14.1125 73.1618 14.651 75.2153 14.651C77.0273 14.651 78.3398 14.303 79.2293 13.589C80.1413 12.8555 80.5853 11.7485 80.5853 10.2065C80.5853 9.13102 80.1683 5.62402 74.8028 5.62402C69.7853 5.62402 66.1433 9.31251 66.1433 14.3945C66.1433 17.9705 68.6453 20.1065 72.8363 20.1065C74.3228 20.1065 76.5683 20.1065 79.2758 18.2495C79.4288 18.1445 79.4738 17.9375 79.3793 17.777V17.774H79.3778ZM71.7938 11.51C72.1043 9.68751 73.5263 8.70351 74.7053 8.70351C75.7118 8.70351 76.3613 9.22401 76.3613 10.031C76.3613 11.126 75.3833 11.807 73.8068 11.807C73.0568 11.807 72.3803 11.711 71.8748 11.6255L71.7743 11.609L71.7908 11.5085L71.7938 11.51Z" fill="white"/>
<path d="M93.0021 5.91808H91.8426C90.2601 5.91808 89.0736 6.28858 88.2576 7.73758H88.2306C88.3536 7.02058 88.3311 6.44458 88.2651 6.15658C88.2321 6.01108 88.1106 5.90308 87.9621 5.90308H83.0346C82.8591 5.90308 82.7196 6.05008 82.7286 6.22708C82.7346 6.33958 82.7391 6.46858 82.7391 6.61108C82.7391 6.94108 82.7391 7.31608 82.6821 7.74358L80.8206 19.4166C80.7906 19.6026 80.9346 19.7721 81.1236 19.7721H86.2296C86.3811 19.7721 86.5086 19.6626 86.5326 19.5141L87.3606 14.3421C87.7086 12.0621 88.7316 10.9056 90.4026 10.9056H92.1876C92.3361 10.9056 92.4621 10.8006 92.4891 10.6551L93.2946 6.31858C93.3351 6.10108 93.2526 5.92558 93.0021 5.91808Z" fill="white"/>
<path d="M91.6448 18.3284C91.6448 16.8104 92.7623 15.8369 94.2803 15.8369C95.3978 15.8369 96.1988 16.5239 96.1988 17.6699C96.1988 19.1594 94.9958 20.1044 93.5918 20.1044C92.3888 20.1044 91.6448 19.4174 91.6448 18.3284Z" fill="white"/>
</svg>
