<svg width="90" height="27" viewBox="0 0 90 27" fill="none" xmlns="http://www.w3.org/2000/svg">
<path fill-rule="evenodd" clip-rule="evenodd" d="M72.8586 20.2533C72.8384 20.0672 72.8235 19.8805 72.814 19.6935C72.662 17.1141 73.5959 14.7436 75.6164 12.5845C77.7854 10.186 80.5119 8.98626 83.7973 8.98626C85.9052 8.98626 87.5021 9.6922 88.5871 11.1008C89.6126 12.3913 90.0791 14.055 89.9891 16.0936C89.8677 18.853 88.8439 21.2375 86.9151 23.2463C84.9871 25.256 82.5909 26.26 79.7283 26.26C77.3486 26.26 75.5404 25.4954 74.3052 23.9647C74.0264 23.6133 73.7854 23.2336 73.586 22.8318C73.2503 23.0391 72.9104 23.2392 72.5663 23.4321C69.3725 25.2626 66.1325 26.1758 62.8488 26.1758C60.408 26.1758 58.6592 25.365 57.6057 23.7442C57.5285 23.6306 57.4553 23.5144 57.386 23.3958C57.3539 23.4242 57.3217 23.4526 57.2894 23.4808C55.2698 25.2213 53.2518 26.0916 51.233 26.0916C49.2728 26.0916 48.3249 25.0124 48.3844 22.85C48.4141 21.8889 48.6032 20.7347 48.9492 19.3839C49.296 18.0331 49.4842 16.982 49.5148 16.2315C49.5453 15.0921 49.1977 14.5199 48.4711 14.5199C47.685 14.5199 46.7487 15.4529 45.6605 17.3139C44.5111 19.2666 43.8902 21.1582 43.801 22.9895C43.7399 24.2825 43.8671 25.2742 44.1808 25.9644C42.0786 26.0247 40.6056 25.6787 39.7651 24.9274C39.0129 24.2669 38.6669 23.172 38.7288 21.6388C38.7599 20.6633 38.9088 19.6952 39.1722 18.7555C39.4373 17.7945 39.5851 16.9391 39.6156 16.1877C39.6767 15.0755 39.2688 14.5199 38.3936 14.5199C37.6381 14.5199 36.8231 15.3769 35.9496 17.0885C35.0743 18.8001 34.5913 20.5885 34.5013 22.4504C34.441 24.1323 34.5492 25.3031 34.825 25.9644C32.7566 26.0247 31.2877 25.5896 30.4183 24.6599C30.022 24.2322 29.7437 23.6815 29.5843 23.0069C29.4151 23.1671 29.2417 23.3256 29.0633 23.4808C27.0437 25.2213 25.0257 26.0916 23.0069 26.0916C22.0714 26.0916 21.3556 25.7919 20.8593 25.1916C20.3623 24.5905 20.1286 23.8111 20.1591 22.85C20.188 21.86 20.4977 20.3293 21.0847 18.2577C21.6726 16.1869 21.9674 15.0755 21.9674 14.9253C21.9674 14.1458 21.6949 13.7553 21.1541 13.7553C20.9832 13.7553 20.5183 14.036 19.7587 14.5942C19.1865 16.3008 17.938 18.3881 16.0142 20.856C13.277 24.4023 10.9618 26.1758 9.06769 26.1758C7.89521 26.1758 6.90109 25.0966 6.09026 22.9359L4.46696 16.9952C3.86421 14.8361 3.21853 13.7553 2.52743 13.7553C2.37715 13.7553 1.85036 14.0715 0.947888 14.7007L0 13.4837C0.985954 12.6207 1.96525 11.7501 2.93779 10.8721C4.26219 9.73019 5.25715 9.12993 5.92017 9.06965C7.4865 8.91938 8.4509 9.98697 8.81255 12.2732C9.20393 14.7387 9.47475 16.2728 9.62668 16.8722C10.0783 18.919 10.5746 19.9404 11.1179 19.9404C11.539 19.9404 12.1714 19.2774 13.0153 17.9505C13.8583 16.6228 14.31 15.6131 14.3711 14.9187C14.4916 13.7735 14.04 13.1996 13.0153 13.1996C12.5339 13.1996 12.0369 13.3103 11.5258 13.5291C12.5149 10.2974 14.4049 8.72865 17.1949 8.81783C19.0577 8.87232 20.0336 9.96302 20.1228 12.0883L21.4678 10.8721C22.7642 9.73019 23.7286 9.12993 24.3627 9.06965C25.356 8.97966 26.0867 9.27112 26.5541 9.94486C27.0198 10.6186 27.1932 11.493 27.0743 12.5705C26.6821 14.3968 26.2593 16.7153 25.8077 19.5267C25.7771 20.8147 26.2453 21.4571 27.2088 21.4571C27.6299 21.4571 28.383 21.0137 29.4687 20.1237L29.5092 20.0906C29.5777 19.4631 29.6892 18.7184 29.8436 17.8547C30.0913 16.4618 30.23 15.3777 30.2598 14.5975C30.3192 14.0591 30.183 13.7892 29.8527 13.7892C29.671 13.7892 29.1591 14.0938 28.3153 14.7007L27.2303 13.4845C27.3814 13.3656 28.3293 12.4937 30.0789 10.8721C31.3439 9.70129 32.2026 9.10103 32.6542 9.07048C33.4378 9.01021 34.0703 9.33304 34.5525 10.0382C35.0347 10.7441 35.2758 11.5632 35.2758 12.4937C35.2758 12.7942 35.2461 13.0799 35.1866 13.3499C35.6238 12.6756 36.1568 12.0685 36.7686 11.5475C38.1541 10.3461 39.7064 9.66991 41.4239 9.51964C42.9002 9.39992 43.9538 9.74505 44.5887 10.5559C45.0998 11.2164 45.3401 12.1634 45.3112 13.3945C45.5389 13.2008 45.7651 13.0053 45.9899 12.8083C46.6818 11.9975 47.3597 11.3526 48.0227 10.8721C49.1374 10.0613 50.2983 9.61046 51.503 9.51964C52.9496 9.39992 53.9883 9.7434 54.6216 10.5517C55.1633 11.2106 55.4052 12.1535 55.3458 13.3788C55.3152 14.2169 55.1113 15.4364 54.7348 17.0373C54.3574 18.6391 54.17 19.5573 54.17 19.7967C54.1394 20.4267 54.2005 20.8593 54.3516 21.0988C54.5011 21.3382 54.8619 21.4571 55.4358 21.4571C55.6925 21.4571 56.074 21.292 56.5793 20.9601C56.531 20.5684 56.5111 20.1738 56.5199 19.7794C56.5488 17.3478 57.6346 15.0359 59.7747 12.8429C62.1238 10.4411 64.8965 9.23891 68.0911 9.23891C71.0437 9.23891 72.6109 10.4386 72.7917 12.8347C72.9114 14.3622 72.0676 15.9351 70.261 17.5534C68.3313 19.3219 65.9046 20.4448 62.9825 20.9237C63.5242 21.6734 64.3375 22.0466 65.4233 22.0466C67.5923 22.0466 69.9579 21.4984 72.5209 20.3978C72.6348 20.3499 72.7479 20.3012 72.8586 20.2533ZM84.8806 15.9235C84.9119 15.111 84.798 14.3663 84.542 13.6893C84.2861 13.0122 83.9162 12.6737 83.4348 12.6737C81.8974 12.6737 80.6316 13.501 79.6391 15.1565C78.7936 16.5106 78.3419 17.9555 78.2825 19.4887C78.252 20.2417 78.3882 20.9039 78.6887 21.4753C79.019 22.1383 79.4864 22.4686 80.0899 22.4686C81.4457 22.4686 82.6066 21.6718 83.571 20.0758C84.3843 18.7514 84.8195 17.3676 84.8806 15.9235ZM67.4586 14.4092C67.4875 13.6034 67.1572 13.1996 66.4653 13.1996C65.562 13.1996 64.6455 13.8197 63.7124 15.0599C62.7794 16.3 62.298 17.4873 62.2691 18.6226C62.2518 18.6226 62.2518 18.8175 62.2691 19.2055C63.7176 18.6847 65.0289 17.842 66.1045 16.7409C66.9764 15.7856 67.428 15.007 67.4586 14.4092ZM28.6109 3.13807C28.5811 3.88613 28.2046 4.60363 27.4805 5.29058C26.6672 6.06753 25.7028 6.45642 24.5881 6.45642C22.8707 6.45642 22.0417 5.70919 22.102 4.21474C22.1309 3.43862 22.5908 2.69056 23.48 1.97306C24.3685 1.25638 25.3552 0.897217 26.441 0.897217C27.0734 0.897217 27.601 1.14492 28.0238 1.63701C28.4449 2.13076 28.6406 2.63111 28.6109 3.13807Z" fill="white"/>
</svg>
